<?xml version="1.0" encoding="UTF-8"?>
<svg version="1.1" xmlns="http://www.w3.org/2000/svg" width="500" height="500">
<path d="M0 0 C2.56160375 -0.0054331 5.12320438 -0.01256237 7.68479919 -0.02124023 C13.87049106 -0.03746468 20.05592718 -0.03525883 26.24162185 -0.02358967 C31.27674372 -0.01449094 36.31181132 -0.01335887 41.34693909 -0.01768494 C42.42909271 -0.01860433 42.42909271 -0.01860433 43.53310803 -0.01954231 C44.99949373 -0.02082143 46.46587943 -0.02211829 47.9322651 -0.02343267 C61.62603012 -0.03479101 75.31968737 -0.0217998 89.01343471 -0.00023121 C100.71848301 0.01763545 112.42337253 0.01453 124.12841797 -0.00390625 C137.77906063 -0.02539743 151.42960925 -0.03369282 165.08026648 -0.0214572 C166.54072919 -0.02018323 168.00119192 -0.01892575 169.46165466 -0.01768494 C170.17990167 -0.01706783 170.89814867 -0.01645073 171.63816074 -0.01581493 C176.65695488 -0.01238665 181.6756885 -0.01813534 186.69447327 -0.02760315 C193.47124435 -0.04010852 200.24767321 -0.03098361 207.02443123 -0.00802612 C209.49615552 -0.00278365 211.96790524 -0.00417515 214.43961906 -0.01307678 C243.37534564 -0.10759598 268.62185892 5.32928615 292.90429688 21.51757812 C292.90429688 22.17757812 292.90429688 22.83757813 292.90429688 23.51757812 C293.608125 23.73414062 294.31195313 23.95070313 295.03710938 24.17382812 C298.61245523 25.84946706 301.06259328 28.2268143 303.77929688 31.01757812 C304.30233398 31.54786621 304.82537109 32.0781543 305.36425781 32.62451172 C316.90429688 44.57491086 316.90429688 44.57491086 316.90429688 49.51757812 C317.56429688 49.51757812 318.22429687 49.51757812 318.90429688 49.51757812 C327.78147049 67.4168472 334.23272851 83.91744283 334.17172241 104.19728088 C334.17625353 105.32103982 334.18078464 106.44479876 334.18545306 107.60261101 C334.19803915 111.34066681 334.19648041 115.07857584 334.19482422 118.81665039 C334.20081316 121.50825025 334.20756379 124.19983893 334.21517944 126.89143372 C334.23173007 133.42853497 334.23728632 139.96560014 334.2384042 146.5027206 C334.23935767 151.82267501 334.24348285 157.14261761 334.24980545 162.46256828 C334.26740307 177.57956055 334.27664685 192.69652453 334.2751445 207.81352711 C334.27506459 208.62698944 334.27498468 209.44045176 334.27490234 210.27856445 C334.27482058 211.09303203 334.27473882 211.9074996 334.27465458 212.74664801 C334.27384251 225.93201818 334.29296424 239.1172739 334.32117908 252.302611 C334.34998947 265.87450321 334.36371484 279.44633975 334.36199152 293.01826328 C334.36133034 300.62441817 334.36670228 308.23045312 334.38834763 315.83658028 C334.40666737 322.31512695 334.41081928 328.79349935 334.39732878 335.27206088 C334.3908524 338.56961549 334.39271134 341.86677177 334.40803528 345.16430664 C334.50633263 367.79701555 331.82543386 388.29325037 320.90429688 408.51757812 C320.24429687 408.51757812 319.58429688 408.51757812 318.90429688 408.51757812 C318.81921875 409.06414062 318.73414063 409.61070312 318.64648438 410.17382812 C317.66162868 413.28389874 315.9834609 415.41202609 314.02929688 418.01757812 C313.330625 418.95601563 312.63195312 419.89445312 311.91210938 420.86132812 C311.24953125 421.73789062 310.58695312 422.61445313 309.90429688 423.51757812 C309.09605469 424.67773438 309.09605469 424.67773438 308.27148438 425.86132812 C307.59472656 426.68117188 307.59472656 426.68117188 306.90429688 427.51757812 C306.24429687 427.51757812 305.58429688 427.51757812 304.90429688 427.51757812 C304.90429688 428.17757813 304.90429688 428.83757812 304.90429688 429.51757812 C300.13212152 434.44205695 294.42571969 438.48090766 288.90429688 442.51757812 C288.22882813 443.06929688 287.55335938 443.62101562 286.85742188 444.18945312 C284.90429688 445.51757812 284.90429688 445.51757812 281.90429688 445.51757812 C281.90429688 446.17757813 281.90429688 446.83757812 281.90429688 447.51757812 C256.39190576 459.68320907 231.47347387 462.991353 203.39746094 462.88989258 C201.00670718 462.89232692 198.61595444 462.89605242 196.22520447 462.9009552 C189.79364594 462.91027784 183.36224189 462.90101308 176.93069553 462.88762307 C170.85558089 462.87607177 164.78046574 462.87992956 158.70534357 462.88182559 C146.66991033 462.88500077 134.63453667 462.87343109 122.59912109 462.85375977 C110.96205839 462.83474498 99.32506541 462.82767852 87.68798828 462.83325195 C74.96177456 462.83932914 62.23559132 462.8390986 49.5093801 462.82776612 C48.1489714 462.82655904 46.7885627 462.82535305 45.42815399 462.82414818 C44.42457019 462.82324287 44.42457019 462.82324287 43.40071197 462.82231927 C38.71969454 462.81846429 34.03869239 462.81888494 29.35767365 462.82073402 C23.04391486 462.82262863 16.73024445 462.81442353 10.41650581 462.79867363 C8.11080605 462.79446055 5.80509728 462.79355996 3.49939537 462.79636383 C-33.29455878 462.83429462 -63.29720918 455.40530767 -91.76757812 430.92773438 C-93.09570312 429.51757812 -93.09570312 429.51757812 -93.09570312 427.51757812 C-93.75570312 427.51757812 -94.41570312 427.51757812 -95.09570312 427.51757812 C-95.09570312 426.85757812 -95.09570312 426.19757813 -95.09570312 425.51757812 C-95.75570312 425.51757812 -96.41570312 425.51757812 -97.09570312 425.51757812 C-98.54097049 423.78209643 -99.90442533 421.97781849 -101.22070312 420.14257812 C-101.94515625 419.14484375 -102.66960937 418.14710938 -103.41601562 417.11914062 C-105.09570312 414.51757812 -105.09570312 414.51757812 -105.09570312 412.51757812 C-105.75570312 412.51757812 -106.41570312 412.51757812 -107.09570312 412.51757812 C-116.26299781 395.41136074 -122.42126749 378.45079872 -122.36312866 358.83750916 C-122.36765978 357.70164842 -122.37219089 356.56578768 -122.37685931 355.39550692 C-122.3894631 351.61055309 -122.3878855 347.8257439 -122.38623047 344.04077148 C-122.39113489 341.31814029 -122.39896851 338.59551906 -122.40658569 335.87289429 C-122.42314723 329.25644848 -122.42869308 322.64003832 -122.42981045 316.02357351 C-122.43076343 310.6397041 -122.43488617 305.25584638 -122.4412117 299.87198067 C-122.45881252 284.57800207 -122.46805263 269.28405145 -122.46655075 253.99006265 C-122.46647084 253.16681121 -122.46639093 252.34355978 -122.46630859 251.49536133 C-122.46622683 250.6710941 -122.46614507 249.84682687 -122.46606083 248.99758185 C-122.46524873 235.65304322 -122.48437031 222.30861768 -122.51258533 208.96411174 C-122.54138668 195.23292436 -122.55512158 181.50179199 -122.55339777 167.77057368 C-122.55273627 160.07333348 -122.55812259 152.37621177 -122.57975388 144.67899895 C-122.59806165 138.12281273 -122.60223516 131.56679868 -122.58873503 125.01059782 C-122.58225255 121.672613 -122.58413367 118.33522392 -122.59944153 114.99722862 C-122.7040139 90.60062453 -118.52156566 71.30917162 -107.09570312 49.51757812 C-106.43570313 49.51757812 -105.77570313 49.51757812 -105.09570312 49.51757812 C-104.82628906 48.77765625 -104.556875 48.03773437 -104.27929688 47.27539062 C-95.9497894 27.86736331 -73.51490097 15.17363033 -55.03710938 7.19726562 C-37.09705725 0.73375748 -18.86621245 -0.06794482 0 0 Z " fill="#01012C" transform="translate(144.095703125,13.482421875)"/>
<path d="M0 0 C-3.5318298 13.42095324 -12.00000517 24.68577303 -21 35 C-21.58394531 35.71671875 -22.16789062 36.4334375 -22.76953125 37.171875 C-36.40078966 53.64430905 -58.90111454 67.14349591 -80.34082031 69.22753906 C-94.35524649 70.11636785 -105.83632303 68.08307184 -117 59 C-118.94648689 57.0763057 -120.4123616 55.25342224 -122 53 C-122 52.34 -122 51.68 -122 51 C-120.20369141 50.56300781 -120.20369141 50.56300781 -118.37109375 50.1171875 C-97.31002679 44.86877744 -77.68275429 36.73364522 -60 24 C-59.17757812 23.42507813 -58.35515625 22.85015625 -57.5078125 22.2578125 C-52.54814283 18.63408079 -48.95453263 14.74176134 -45.41015625 9.72265625 C-44.94480469 9.15417969 -44.47945313 8.58570313 -44 8 C-43.34 8 -42.68 8 -42 8 C-41.79375 7.34 -41.5875 6.68 -41.375 6 C-39.2672363 1.40124284 -36.79039323 -3.58750756 -32.109375 -5.95703125 C-20.86331414 -9.03420144 -9.61085258 -6.19366055 0 0 Z " fill="#1261FC" transform="translate(330,270)"/>
<path d="M0 0 C1.50390625 1.5390625 1.50390625 1.5390625 2.5625 3.625 C2.97113281 4.3571875 3.37976563 5.089375 3.80078125 5.84375 C4.19652344 6.5553125 4.59226563 7.266875 5 8 C11.70054884 17.30631783 20.89574811 21.82341906 32 24 C50.42389887 25.70983003 65.4313446 19.87604607 80 9 C82.47906422 6.78386683 84.79324991 4.48647898 87 2 C91.28083414 3.57072431 95.18052713 5.67461819 99.125 7.9375 C100.05505859 8.45860352 100.05505859 8.45860352 101.00390625 8.99023438 C104.02674973 10.71618049 106.71807509 12.3433064 109 15 C95.12502258 33.68549968 75.94721234 46.91837407 52.875 51.4140625 C30.98810993 53.87633763 12.94017793 49.71149913 -5 37 C-7.66175796 34.53738817 -9.82145116 31.89002428 -12 29 C-12.58136719 28.32453125 -13.16273438 27.6490625 -13.76171875 26.953125 C-18.91704043 20.82489011 -25 12.24232847 -25 4 C-17.17670656 1.51077027 -8.23248825 -0.83016688 0 0 Z " fill="#FA01CA" transform="translate(143,265)"/>
<path d="M0 0 C8.01105082 0.17542447 16.42043287 5.67422557 22.625 10.5 C22.625 11.16 22.625 11.82 22.625 12.5 C20.73096462 13.75566416 18.78144197 14.92789433 16.8125 16.0625 C8.80406154 20.81190768 1.57243211 26.37959868 -4.9375 33.0625 C-5.741875 33.866875 -6.54625 34.67125 -7.375 35.5 C-8.035 35.5 -8.695 35.5 -9.375 35.5 C-10.365 33.52 -10.365 33.52 -11.375 31.5 C-11.82875 32.263125 -12.2825 33.02625 -12.75 33.8125 C-13.91324492 35.73632814 -15.1279415 37.62941224 -16.375 39.5 C-17.035 39.17 -17.695 38.84 -18.375 38.5 C-18.34535156 39.36109375 -18.31570312 40.2221875 -18.28515625 41.109375 C-18.37638783 44.55237567 -18.93964714 47.42564175 -19.8125 50.75 C-20.07933594 51.78640625 -20.34617187 52.8228125 -20.62109375 53.890625 C-21.375 56.5 -21.375 56.5 -22.375 58.5 C-24.81374429 57.41611365 -26.62785366 56.28814964 -28.6875 54.5625 C-35.93041305 49.00398533 -43.56571732 48.45458272 -52.44042969 49.20703125 C-62.59046108 50.74413848 -70.45815688 59.58315688 -77.375 66.5 C-82.18832096 66.28396225 -85.68300481 63.65288394 -89.5625 61.0625 C-90.19091797 60.65451172 -90.81933594 60.24652344 -91.46679688 59.82617188 C-93.96732142 58.18679054 -96.25540823 56.61959177 -98.375 54.5 C-98.22702146 49.74002356 -95.62912684 46.98378332 -92.5 43.6875 C-91.76450928 42.90246094 -91.76450928 42.90246094 -91.01416016 42.1015625 C-83.84411796 34.65002806 -75.95480085 29.33192034 -66.375 25.5 C-63.22346271 24.20643455 -63.22346271 24.20643455 -61.375 21.5 C-57.87528801 21.3826206 -54.37609045 21.31236039 -50.875 21.25 C-49.89273438 21.21648437 -48.91046875 21.18296875 -47.8984375 21.1484375 C-41.22718955 21.05948753 -37.09847298 22.03866158 -31.375 25.5 C-31.375 24.84 -31.375 24.18 -31.375 23.5 C-30.715 23.5 -30.055 23.5 -29.375 23.5 C-29.375 22.84 -29.375 22.18 -29.375 21.5 C-30.365 21.5 -31.355 21.5 -32.375 21.5 C-32.375 20.84 -32.375 20.18 -32.375 19.5 C-34.025 19.5 -35.675 19.5 -37.375 19.5 C-37.87 18.51 -37.87 18.51 -38.375 17.5 C-40.72407875 16.81068656 -40.72407875 16.81068656 -43.4375 16.375 C-44.35660156 16.20742187 -45.27570313 16.03984375 -46.22265625 15.8671875 C-46.93292969 15.74601563 -47.64320313 15.62484375 -48.375 15.5 C-45.38619548 12.15368297 -42.6368231 10.45525532 -38.5 8.75 C-37.49195313 8.32203125 -36.48390625 7.8940625 -35.4453125 7.453125 C-30.20015503 5.82485729 -26.31175937 6.17681912 -21.375 8.5 C-21.375 9.16 -21.375 9.82 -21.375 10.5 C-20.59125 10.62375 -19.8075 10.7475 -19 10.875 C-16.375 12.5 -16.375 12.5 -15.59765625 14.859375 C-15.10564551 17.40202904 -14.69269004 19.93002979 -14.375 22.5 C-13.715 22.5 -13.055 22.5 -12.375 22.5 C-12.24544922 21.59121094 -12.24544922 21.59121094 -12.11328125 20.6640625 C-10.88509489 13.3400154 -8.50438945 1.25990955 0 0 Z " fill="#D502F9" transform="translate(262.375,123.5)"/>
<path d="M0 0 C5.77990546 5.39521957 12.3670211 12.56211519 12.8125 20.83203125 C12.76222656 21.54875 12.71195312 22.26546875 12.66015625 23.00390625 C-1.29725172 30.49827802 -1.29725172 30.49827802 -6.33984375 30.00390625 C-8.2389757 28.47912242 -9.7905098 26.78829508 -11.421875 24.98046875 C-19.88247654 16.26139669 -32.95204291 12.94405392 -44.77734375 12.50390625 C-63.49661577 13.23263703 -81.68685773 22.05936246 -98.33984375 30.00390625 C-95.08039883 14.00299481 -85.12439307 2.68388886 -71.90625 -6.37890625 C-49.49983404 -20.49801767 -19.94899338 -17.01825646 0 0 Z " fill="#14BEFB" transform="translate(342.33984375,162.99609375)"/>
<path d="M0 0 C5.74034654 2.61840368 9.73860896 7.17688672 12.3125 12.9375 C13.99697166 20.4410556 12.65853423 26.33785433 9 33 C5.37320946 37.38067397 0.69515042 39.6512609 -4.9453125 40.18359375 C-11.42602926 40.39304657 -16.65049697 39.05540929 -21.609375 34.60546875 C-25.87729215 29.67818238 -27.72772898 23.65415925 -27.37890625 17.1953125 C-26.11214678 9.85594317 -21.92665718 5.21872888 -16 1 C-11.34948023 -1.32525989 -5.06133589 -0.40975467 0 0 Z " fill="#F5F5F7" transform="translate(140,210)"/>
<path d="M0 0 C1.28648437 -0.02835938 2.57296875 -0.05671875 3.8984375 -0.0859375 C9.22500159 0.57290376 13.16280382 3.18714597 16.5 7.375 C19.76364339 12.16586113 19.23897986 17.81409668 18.625 23.375 C17.625 24.375 17.625 24.375 15.03295898 24.48852539 C13.90704346 24.48328857 12.78112793 24.47805176 11.62109375 24.47265625 C10.40615234 24.46943359 9.19121094 24.46621094 7.93945312 24.46289062 C6.66005859 24.45451172 5.38066406 24.44613281 4.0625 24.4375 C2.77923828 24.43298828 1.49597656 24.42847656 0.17382812 24.42382812 C-3.00916022 24.41199545 -6.19205762 24.39551068 -9.375 24.375 C-8.00516497 27.53615776 -7.3859362 28.3677092 -4.375 30.375 C1.29490385 30.90015593 7.06016158 30.57820831 12.625 29.375 C14.1875 31.6875 14.1875 31.6875 15.625 34.375 C14.625 37.375 14.625 37.375 12.875 38.32421875 C5.41360291 40.77248967 -2.07369906 41.94797706 -9.375 38.375 C-17.6842718 32.16260658 -17.6842718 32.16260658 -19.375 27.375 C-19.7109375 23.9140625 -19.7109375 23.9140625 -19.75 20 C-19.77835938 18.71351563 -19.80671875 17.42703125 -19.8359375 16.1015625 C-19.10429364 10.18640792 -15.77743879 6.22713394 -11.375 2.375 C-7.70698537 -0.01868091 -4.30937699 0.04300775 0 0 Z " fill="#F3F3F5" transform="translate(258.375,209.625)"/>
<path d="M0 0 C0.99 0.66 1.98 1.32 3 2 C2.01 4.97 1.02 7.94 0 11 C-3 11 -3 11 -6 9 C-8.83784221 8.71965608 -8.83784221 8.71965608 -11.9375 8.8125 C-12.97777344 8.81894531 -14.01804687 8.82539063 -15.08984375 8.83203125 C-17.56066692 8.97464252 -19.64177041 9.28968988 -22 10 C-22 10.66 -22 11.32 -22 12 C-22.66 12 -23.32 12 -24 12 C-24.309375 12.78375 -24.61875 13.5675 -24.9375 14.375 C-26 17 -26 17 -27 19 C-27.77641524 25.58843787 -27.5269617 30.94040195 -23.55078125 36.40625 C-20.1163257 39.93586679 -16.36867094 40.82257969 -11.625 41.4375 C-6.92081563 40.86975361 -3.19446627 39.13052255 1 37 C4.22265625 42.17578125 4.22265625 42.17578125 5 44 C3.83961987 47.48114039 2.53714916 48.43498189 -0.64453125 50.140625 C-8.06958532 52.84959995 -16.67914435 52.85389288 -24 50 C-31.18674095 45.8952135 -34.93538889 40.52248148 -38.3125 33.125 C-39.97834411 25.55298133 -39.64134505 17.94283123 -36 11 C-27.47158499 -0.90904799 -14.14860732 -7.08695894 0 0 Z " fill="#F4F5F7" transform="translate(105,198)"/>
<path d="M0 0 C2.97 0 5.94 0 9 0 C9.66 0.66 10.32 1.32 11 2 C11.99 1.34 12.98 0.68 14 0 C19.27416424 -0.6224169 25.24269277 -1.23807534 30.18359375 0.98046875 C32.93724549 3.21223139 34.73992817 5.72875471 36 9 C36.22705078 12.20800781 36.22705078 12.20800781 36.1953125 15.953125 C36.1924826 16.61334656 36.18965271 17.27356812 36.18673706 17.95379639 C36.17558415 20.05271897 36.15048946 22.15120742 36.125 24.25 C36.11496384 25.67707715 36.1058391 27.10416102 36.09765625 28.53125 C36.07566111 32.02097328 36.04116536 35.51044423 36 39 C32.7 39 29.4 39 26 39 C25.98541748 38.19256348 25.97083496 37.38512695 25.95581055 36.55322266 C25.88153914 32.9099873 25.78480975 29.26768967 25.6875 25.625 C25.66494141 24.35398438 25.64238281 23.08296875 25.61914062 21.7734375 C25.5659668 19.95585937 25.5659668 19.95585937 25.51171875 18.1015625 C25.48553467 16.98088379 25.45935059 15.86020508 25.43237305 14.70556641 C25.28968994 13.81272949 25.14700684 12.91989258 25 12 C21.30513897 9.53675931 19.36706908 9.61008312 15 10 C13.19638983 11.08119871 13.19638983 11.08119871 12 13 C11.4939264 15.8028729 11.4939264 15.8028729 11.48828125 18.98046875 C11.45283203 20.14384766 11.41738281 21.30722656 11.38085938 22.50585938 C11.34702148 24.32827148 11.34702148 24.32827148 11.3125 26.1875 C11.27833984 27.41404297 11.24417969 28.64058594 11.20898438 29.90429688 C11.1264059 32.93610678 11.05728631 35.96762379 11 39 C7.37 39 3.74 39 0 39 C0 26.13 0 13.26 0 0 Z " fill="#F2F2F5" transform="translate(198,210)"/>
<path d="M0 0 C3.63 0 7.26 0 11 0 C11.63808594 1.57652344 12.27617187 3.15304688 12.93359375 4.77734375 C13.76809649 6.83078309 14.60273912 8.88416558 15.4375 10.9375 C16.06881836 12.49887695 16.06881836 12.49887695 16.71289062 14.09179688 C17.31713867 15.57583008 17.31713867 15.57583008 17.93359375 17.08984375 C18.4913147 18.46450806 18.4913147 18.46450806 19.06030273 19.86694336 C19.82032819 21.94100301 19.82032819 21.94100301 21 23 C21.18175781 22.35933594 21.36351562 21.71867187 21.55078125 21.05859375 C23.06572083 15.8456478 24.80612911 10.96005594 27 6 C27.68836513 4.00736409 28.36281399 2.00958663 29 0 C32.63 0 36.26 0 40 0 C38.88917766 6.16001477 37.0963922 11.23192692 34.4140625 16.87109375 C32.81939728 20.39962093 31.45663486 23.99182309 30.125 27.625 C27.92259205 33.60969393 25.6103613 39.53841377 23.1875 45.4375 C22.88537598 46.17758301 22.58325195 46.91766602 22.27197266 47.68017578 C20.12423197 52.87576803 20.12423197 52.87576803 19 54 C17.14712498 54.07226502 15.29166122 54.0838122 13.4375 54.0625 C12.42558594 54.05347656 11.41367187 54.04445313 10.37109375 54.03515625 C9.19740234 54.01775391 9.19740234 54.01775391 8 54 C8.64435273 52.20780032 9.29052952 50.41625636 9.9375 48.625 C10.47697266 47.12839844 10.47697266 47.12839844 11.02734375 45.6015625 C12 43 12 43 13 41 C13.37975774 35.61603523 12.47022583 31.85294252 10.41015625 26.89453125 C10.14617538 26.24804123 9.88219452 25.60155121 9.61021423 24.93547058 C8.77236956 22.88956144 7.91820862 20.85099346 7.0625 18.8125 C6.21374788 16.76205172 5.36846274 14.71022812 4.52549744 12.65739441 C3.76148941 10.80136966 2.98852486 8.94903921 2.21508789 7.09692383 C1 4 1 4 0 0 Z " fill="#F3F3F5" transform="translate(387,210)"/>
<path d="M0 0 C2.97 0 5.94 0 9 0 C9.66 0.66 10.32 1.32 11 2 C11.99 1.34 12.98 0.68 14 0 C17.1796875 -0.3359375 17.1796875 -0.3359375 20.875 -0.375 C22.08929688 -0.40335938 23.30359375 -0.43171875 24.5546875 -0.4609375 C28.69572979 0.0930795 30.16947489 0.95250084 33 4 C37.18252457 10.6140139 36.33706883 17.84017038 36.1875 25.4375 C36.16719727 27.39333008 36.16719727 27.39333008 36.14648438 29.38867188 C36.11127334 32.59287622 36.06202094 35.79622105 36 39 C32.7 39 29.4 39 26 39 C25.98541748 38.22809326 25.97083496 37.45618652 25.95581055 36.66088867 C25.88141967 33.16924907 25.7847291 29.6785751 25.6875 26.1875 C25.66494141 24.97255859 25.64238281 23.75761719 25.61914062 22.50585938 C25.5659668 20.76079102 25.5659668 20.76079102 25.51171875 18.98046875 C25.48553467 17.90692139 25.45935059 16.83337402 25.43237305 15.72729492 C25.21875669 12.98315555 25.21875669 12.98315555 23.58911133 11.15332031 C21.61239707 9.71869162 20.42837254 9.56709919 18 9.5625 C16.9790625 9.53349609 16.9790625 9.53349609 15.9375 9.50390625 C13.11890672 10.22560251 12.4870783 11.53869113 11 14 C10.49888483 16.79763443 10.49888483 16.79763443 10.48828125 19.859375 C10.45283203 20.97441406 10.41738281 22.08945313 10.38085938 23.23828125 C10.34702148 24.97658203 10.34702148 24.97658203 10.3125 26.75 C10.27833984 27.92433594 10.24417969 29.09867188 10.20898438 30.30859375 C10.12654827 33.20563389 10.05738189 36.10237298 10 39 C6.7 39 3.4 39 0 39 C0 26.13 0 13.26 0 0 Z " fill="#F2F3F5" transform="translate(157,210)"/>
<path d="M0 0 C1.05445313 0.00644531 2.10890625 0.01289063 3.1953125 0.01953125 C5.875 0.1875 5.875 0.1875 7.875 1.1875 C7 8.0625 7 8.0625 5.875 9.1875 C4.35571962 9.25929964 2.83332518 9.27142007 1.3125 9.25 C0.48621094 9.24097656 -0.34007812 9.23195312 -1.19140625 9.22265625 C-1.82949219 9.21105469 -2.46757812 9.19945312 -3.125 9.1875 C-3.125 11.1675 -3.125 13.1475 -3.125 15.1875 C-0.155 15.1875 2.815 15.1875 5.875 15.1875 C5.875 18.1575 5.875 21.1275 5.875 24.1875 C2.575 24.1875 -0.725 24.1875 -4.125 24.1875 C-4.125 34.0875 -4.125 43.9875 -4.125 54.1875 C-7.425 54.1875 -10.725 54.1875 -14.125 54.1875 C-14.125 44.6175 -14.125 35.0475 -14.125 25.1875 C-15.445 25.1875 -16.765 25.1875 -18.125 25.1875 C-18.125 21.8875 -18.125 18.5875 -18.125 15.1875 C-16.805 15.1875 -15.485 15.1875 -14.125 15.1875 C-14.2075 14.15625 -14.29 13.125 -14.375 12.0625 C-14.0818741 7.51904849 -13.02039517 5.64588867 -10.125 2.1875 C-6.77366815 -0.01693162 -3.95558783 -0.05345389 0 0 Z " fill="#F0F0F3" transform="translate(378.125,194.8125)"/>
<path d="M0 0 C2.45703125 2.03515625 2.45703125 2.03515625 4 4 C3.01 6.64 2.02 9.28 1 12 C-0.0209375 11.505 -0.0209375 11.505 -1.0625 11 C-4.6315661 9.78499878 -7.25125498 9.591046 -11 10 C-14.22563101 12.12212567 -14.88529574 13.59471162 -15.9375 17.3125 C-16.01452357 21.85689046 -15.14373033 24.03012901 -13 28 C-10.53990037 29.23004981 -8.86827194 29.13314027 -6.125 29.125 C-5.26132812 29.12757813 -4.39765625 29.13015625 -3.5078125 29.1328125 C-1.19334029 29.01023921 0.78289116 28.64966445 3 28 C4.5625 29.6875 4.5625 29.6875 6 32 C5.875 34.625 5.875 34.625 5 37 C1.58248293 39.27834471 -0.26490435 39.43254152 -4.3125 39.75 C-5.42238281 39.84796875 -6.53226562 39.9459375 -7.67578125 40.046875 C-13.16379439 39.96948821 -17.55007686 38.16041442 -22 35 C-26.70304411 29.53181856 -29.02145794 23.90077356 -28.58203125 16.67578125 C-27.54572821 11.91156928 -25.211586 8.59323186 -22 5 C-21.52820313 4.44957031 -21.05640625 3.89914063 -20.5703125 3.33203125 C-15.21198353 -1.62372897 -6.79186816 -1.12294285 0 0 Z " fill="#F3F3F5" transform="translate(308,210)"/>
<path d="M0 0 C3.63 0 7.26 0 11 0 C11 3.3 11 6.6 11 10 C13.31 10 15.62 10 18 10 C18 13.3 18 16.6 18 20 C15.69 20 13.38 20 11 20 C11.33 26.27 11.66 32.54 12 39 C13.98 39.33 15.96 39.66 18 40 C18 42.97 18 45.94 18 49 C12.30397263 50.27870002 9.13828962 49.76677133 4 47 C1.25804364 44.89783346 0.66009598 43.33265262 0 40 C-0.07866959 38.41307361 -0.10784114 36.82321751 -0.09765625 35.234375 C-0.09443359 34.34492188 -0.09121094 33.45546875 -0.08789062 32.5390625 C-0.07951172 31.61867187 -0.07113281 30.69828125 -0.0625 29.75 C-0.05798828 28.81414062 -0.05347656 27.87828125 -0.04882812 26.9140625 C-0.03706918 24.60930959 -0.02063426 22.30468773 0 20 C-1.98 20 -3.96 20 -6 20 C-6 16.7 -6 13.4 -6 10 C-4.02 10 -2.04 10 0 10 C0 6.7 0 3.4 0 0 Z " fill="#F0F0F3" transform="translate(320,200)"/>
<path d="M0 0 C8.01105082 0.17542447 16.42043287 5.67422557 22.625 10.5 C22.625 11.16 22.625 11.82 22.625 12.5 C20.73096462 13.75566416 18.78144197 14.92789433 16.8125 16.0625 C8.80406154 20.81190768 1.57243211 26.37959868 -4.9375 33.0625 C-5.741875 33.866875 -6.54625 34.67125 -7.375 35.5 C-8.035 35.5 -8.695 35.5 -9.375 35.5 C-12.94074805 28.03780953 -12.80392629 18.58953445 -10.1015625 10.85546875 C-5.09390256 0.75465223 -5.09390256 0.75465223 0 0 Z " fill="#17C4F9" transform="translate(262.375,123.5)"/>
<path d="M0 0 C0 0.66 0 1.32 0 2 C0.78375 2.12375 1.5675 2.2475 2.375 2.375 C5 4 5 4 5.77734375 6.359375 C6.26935449 8.90202904 6.68230996 11.43002979 7 14 C7.66 14 8.32 14 9 14 C10.44943152 22.01553095 10.44943152 22.01553095 8.6875 25.875 C8.130625 26.57625 7.57375 27.2775 7 28 C6.34 28.99 5.68 29.98 5 31 C4.01 30.505 4.01 30.505 3 30 C3 31.98 3 33.96 3 36 C2.67 36 2.34 36 2 36 C1.7525 35.13375 1.505 34.2675 1.25 33.375 C-0.97415442 27.36978307 -4.38987371 22.26347813 -10 19 C-20.08389819 14.71224828 -30.2861382 13.57756434 -41 16 C-40.505 14.515 -40.505 14.515 -40 13 C-36.50028801 12.8826206 -33.00109045 12.81236039 -29.5 12.75 C-28.51773438 12.71648437 -27.53546875 12.68296875 -26.5234375 12.6484375 C-19.85218955 12.55948753 -15.72347298 13.53866158 -10 17 C-10 16.34 -10 15.68 -10 15 C-9.34 15 -8.68 15 -8 15 C-8 14.34 -8 13.68 -8 13 C-8.99 13 -9.98 13 -11 13 C-11 12.34 -11 11.68 -11 11 C-12.65 11 -14.3 11 -16 11 C-16.33 10.34 -16.66 9.68 -17 9 C-19.34907875 8.31068656 -19.34907875 8.31068656 -22.0625 7.875 C-23.44115234 7.62363281 -23.44115234 7.62363281 -24.84765625 7.3671875 C-25.55792969 7.24601563 -26.26820313 7.12484375 -27 7 C-24.01119548 3.65368297 -21.2618231 1.95525532 -17.125 0.25 C-16.11695313 -0.17796875 -15.10890625 -0.6059375 -14.0703125 -1.046875 C-8.82515503 -2.67514271 -4.93675937 -2.32318088 0 0 Z " fill="#090232" transform="translate(241,132)"/>
<path d="M0 0 C3.3 0 6.6 0 10 0 C10 12.87 10 25.74 10 39 C6.7 39 3.4 39 0 39 C0 26.13 0 13.26 0 0 Z " fill="#F5F5F8" transform="translate(345,210)"/>
<path d="M0 0 C4.31791908 2.39884393 4.31791908 2.39884393 6 5 C6.93843969 9.65405049 6.57031729 13.63123851 4.75 18 C2.81586503 20.21043996 1.83355913 21.21290024 -1 22 C-5.00815277 21.92842584 -7.23905612 21.58534144 -10.4375 19.125 C-12.72235693 14.55528615 -12.83045858 10.02015952 -12 5 C-9.09974402 0.07041038 -5.53121952 -0.65073171 0 0 Z " fill="#07082D" transform="translate(136,219)"/>
<path d="M0 0 C0 0.66 0 1.32 0 2 C0.66 2 1.32 2 2 2 C4.02558881 5.34939881 4.21738987 7.86962551 4.125 11.75 C4.10695312 12.73484375 4.08890625 13.7196875 4.0703125 14.734375 C4.04710937 15.48203125 4.02390625 16.2296875 4 17 C0.88585021 16.36317386 -1.43790299 15.25939351 -4.1875 13.6875 C-11.34330389 9.98585107 -19.17116796 8.62570874 -27 7 C-24.01119548 3.65368297 -21.2618231 1.95525532 -17.125 0.25 C-16.11695313 -0.17796875 -15.10890625 -0.6059375 -14.0703125 -1.046875 C-8.82515503 -2.67514271 -4.93675937 -2.32318088 0 0 Z " fill="#CC03F7" transform="translate(241,132)"/>
<path d="M0 0 C2.30143236 3.45214853 2.13833854 4.23479324 1.625 8.1875 C1.51414062 9.08855469 1.40328125 9.98960938 1.2890625 10.91796875 C1.19367187 11.60503906 1.09828125 12.29210937 1 13 C0.67 13 0.34 13 0 13 C-0.33 104.08 -0.66 195.16 -1 289 C-1.33 289 -1.66 289 -2 289 C-2.04579849 253.62727243 -2.0810299 218.25455087 -2.10213066 182.88179988 C-2.10463201 178.70375196 -2.10722066 174.52570409 -2.10986328 170.34765625 C-2.1103879 169.51589783 -2.11091252 168.68413942 -2.11145304 167.8271762 C-2.12015072 154.36738142 -2.13591719 140.90760376 -2.15430559 127.44781913 C-2.17302237 113.6322403 -2.18412049 99.81667043 -2.18817699 86.00107944 C-2.19091836 77.47921075 -2.19957034 68.95739046 -2.21583293 60.43553667 C-2.22642176 54.5882331 -2.22959633 48.74095448 -2.22700275 42.89364202 C-2.22572441 39.52230762 -2.22875606 36.15112559 -2.23841095 32.77979469 C-2.24838272 29.11795083 -2.24596055 25.45631289 -2.24050903 21.79446411 C-2.24633472 20.73801795 -2.2521604 19.68157179 -2.25816262 18.59311211 C-2.23237418 12.17026481 -1.51122848 6.24453192 0 0 Z " fill="#212139" transform="translate(24,95)"/>
<path d="M0 0 C4.28083414 1.57072431 8.18052713 3.67461819 12.125 5.9375 C12.74503906 6.28490234 13.36507812 6.63230469 14.00390625 6.99023438 C17.02674973 8.71618049 19.71807509 10.3433064 22 13 C13.21656051 24.28025478 13.21656051 24.28025478 8 29 C7.34 29 6.68 29 6 29 C6 28.01 6 27.02 6 26 C6.99 26 7.98 26 9 26 C9.12375 24.96875 9.2475 23.9375 9.375 22.875 C9.9400884 19.37145194 10.88291446 16.35125663 12 13 C12 11.68 12 10.36 12 9 C11.34 9 10.68 9 10 9 C9.67 8.34 9.34 7.68 9 7 C6.50756462 5.72010075 4.75659877 4.93121829 1.9375 5.1875 C-0.34822914 6.14603157 -2.04525935 7.4866524 -4 9 C-4.99 9.33 -5.98 9.66 -7 10 C-7.99 11.485 -7.99 11.485 -9 13 C-10.875 14.25 -10.875 14.25 -13 15 C-15.1328125 14.546875 -15.1328125 14.546875 -17 14 C-16.27554688 13.49210937 -15.55109375 12.98421875 -14.8046875 12.4609375 C-9.41946612 8.62665988 -4.49152425 4.85570189 0 0 Z " fill="#D30ADA" transform="translate(230,267)"/>
<path d="M0 0 C0 2 0 2 -1.4375 3.5 C-1.953125 3.995 -2.46875 4.49 -3 5 C-3.33 5.66 -3.66 6.32 -4 7 C-8.96757757 8.30725725 -13.89442243 8 -19 8 C-19 8.66 -19 9.32 -19 10 C-20.27875 10.0825 -21.5575 10.165 -22.875 10.25 C-25.05333418 10.45869931 -25.05333418 10.45869931 -27 11 C-28.5899433 12.92064793 -28.5899433 12.92064793 -29 15 C-27.7934375 15.433125 -27.7934375 15.433125 -26.5625 15.875 C-24 17 -24 17 -23 19 C-22.34 19 -21.68 19 -21 19 C-21 19.99 -21 20.98 -21 22 C-19.02 21.67 -17.04 21.34 -15 21 C-15 21.99 -15 22.98 -15 24 C-13.7934375 23.9690625 -13.7934375 23.9690625 -12.5625 23.9375 C-10 24 -10 24 -9 25 C-7.29436222 25.15740605 -5.58272756 25.25093392 -3.87109375 25.31640625 C-2.83662109 25.35830078 -1.80214844 25.40019531 -0.73632812 25.44335938 C0.35228516 25.48267578 1.44089844 25.52199219 2.5625 25.5625 C3.65498047 25.60568359 4.74746094 25.64886719 5.87304688 25.69335938 C8.58189564 25.79982068 11.29083992 25.90183516 14 26 C6.67825935 30.11957065 -4.36906047 28.94224897 -12.37890625 27.3125 C-21.03642868 24.35687357 -28.70243192 19.51912889 -34 12 C-34 11.34 -34 10.68 -34 10 C-32.77925781 9.69707031 -31.55851563 9.39414062 -30.30078125 9.08203125 C-21.41346566 6.83419621 -12.85298804 4.42958104 -4.37109375 0.91796875 C-2 0 -2 0 0 0 Z " fill="#2A52CE" transform="translate(242,311)"/>
<path d="M0 0 C0.66 0 1.32 0 2 0 C0.7632378 3.7102866 -1.00020293 4.60016234 -4 7 C-4.33 7.99 -4.66 8.98 -5 10 C-5.66 10 -6.32 10 -7 10 C-7 10.66 -7 11.32 -7 12 C-8.29233607 13.37310707 -9.62437146 14.71034824 -11 16 C-10.34 16 -9.68 16 -9 16 C-7 19 -7 19 -7.375 21.1875 C-7.58125 21.785625 -7.7875 22.38375 -8 23 C-4.04 22.505 -4.04 22.505 0 22 C-2.05641004 24.05641004 -3.49915052 24.79540375 -6.1328125 25.9453125 C-7.34130859 26.47705078 -7.34130859 26.47705078 -8.57421875 27.01953125 C-9.41597656 27.38433594 -10.25773438 27.74914062 -11.125 28.125 C-11.97449219 28.49753906 -12.82398438 28.87007812 -13.69921875 29.25390625 C-15.79768996 30.17346105 -17.89796342 31.08863193 -20 32 C-16.71317542 18.15151244 -9.87662085 9.87662085 0 0 Z " fill="#16C4FA" transform="translate(264,161)"/>
<path d="M0 0 C6.6613344 1.03312362 11.51713579 3.08580266 17 7 C16.34 7.66 15.68 8.32 15 9 C13.02 8.34 11.04 7.68 9 7 C9 7.66 9 8.32 9 9 C9.66 9 10.32 9 11 9 C12.6875 11.375 12.6875 11.375 14 14 C13.67 14.66 13.34 15.32 13 16 C12.113125 15.0925 11.22625 14.185 10.3125 13.25 C2.56848775 6.67460127 -7.29542423 5.52826633 -17.125 5.76171875 C-19.82095864 5.98516097 -22.3637257 6.40393063 -25 7 C-24.67 6.01 -24.34 5.02 -24 4 C-20.50028801 3.8826206 -17.00109045 3.81236039 -13.5 3.75 C-12.51773438 3.71648437 -11.53546875 3.68296875 -10.5234375 3.6484375 C-3.85218955 3.55948753 0.27652702 4.53866158 6 8 C6 7.34 6 6.68 6 6 C6.66 6 7.32 6 8 6 C8 5.34 8 4.68 8 4 C7.01 4 6.02 4 5 4 C5 3.34 5 2.68 5 2 C3.35 2 1.7 2 0 2 C0 1.34 0 0.68 0 0 Z " fill="#1D0042" transform="translate(225,141)"/>
<path d="M0 0 C2.12890625 0.390625 2.12890625 0.390625 4.69140625 2.140625 C6.12890625 4.390625 6.12890625 4.390625 6.12890625 8.390625 C0.18890625 8.390625 -5.75109375 8.390625 -11.87109375 8.390625 C-10.09866891 1.30092565 -6.99678474 -0.32275119 0 0 Z " fill="#101031" transform="translate(260.87109375,217.609375)"/>
<path d="M0 0 C2.475 0.495 2.475 0.495 5 1 C5.33 6.61 5.66 12.22 6 18 C5.34 18 4.68 18 4 18 C3.71125 18.763125 3.4225 19.52625 3.125 20.3125 C2 23 2 23 0 26 C0 17.42 0 8.84 0 0 Z " fill="#0F0F2D" transform="translate(234,223)"/>
<path d="M0 0 C0.99 0.66 1.98 1.32 3 2 C3.4375 5.4375 3.4375 5.4375 3 9 C1.25 11 1.25 11 -1 12 C-3.50454223 11.84820956 -4.71805118 11.20139201 -6.75 9.75 C-8.47183212 7.33943503 -8.43497972 5.89986477 -8 3 C-5.84150709 -0.29454181 -3.78263233 -0.47282904 0 0 Z " fill="#E8E9ED" transform="translate(352,196)"/>
<path d="M0 0 C2.30143236 3.45214853 2.13833854 4.23479324 1.625 8.1875 C1.51414062 9.08855469 1.40328125 9.98960938 1.2890625 10.91796875 C1.19367187 11.60503906 1.09828125 12.29210937 1 13 C0.67 13 0.34 13 0 13 C-0.33 38.08 -0.66 63.16 -1 89 C-1.33 89 -1.66 89 -2 89 C-2.04648925 78.87240615 -2.08195315 68.744838 -2.10362434 58.61715889 C-2.11402922 53.91367936 -2.12812778 49.21027323 -2.15087891 44.50683594 C-2.17272539 39.96160035 -2.18459337 35.41643504 -2.18975449 30.87115097 C-2.19342915 29.1433489 -2.20060446 27.41555035 -2.21146011 25.68777847 C-2.26441291 16.90478195 -2.19456882 8.57324637 0 0 Z " fill="#1E1E36" transform="translate(24,95)"/>
<path d="M0 0 C-3.3 0 -6.6 0 -10 0 C-9.67 -0.66 -9.34 -1.32 -9 -2 C-9.99 -2.33 -10.98 -2.66 -12 -3 C-12 -3.66 -12 -4.32 -12 -5 C-14.31 -5 -16.62 -5 -19 -5 C-19 -5.66 -19 -6.32 -19 -7 C-32.86 -7.495 -32.86 -7.495 -47 -8 C-47 -8.33 -47 -8.66 -47 -9 C-30.89376935 -11.38610824 -13.43219009 -10.07414257 0 0 Z " fill="#24A0CB" transform="translate(335,158)"/>
<path d="M0 0 C4.77609498 1.64178265 8.79382904 4.26546702 13 7 C12.01 7.66 11.02 8.32 10 9 C9.67 8.34 9.34 7.68 9 7 C6.50756462 5.72010075 4.75659877 4.93121829 1.9375 5.1875 C-0.34822914 6.14603157 -2.04525935 7.4866524 -4 9 C-4.99 9.33 -5.98 9.66 -7 10 C-7.99 11.485 -7.99 11.485 -9 13 C-10.875 14.25 -10.875 14.25 -13 15 C-15.1328125 14.546875 -15.1328125 14.546875 -17 14 C-16.27554688 13.49210937 -15.55109375 12.98421875 -14.8046875 12.4609375 C-9.41946612 8.62665988 -4.49152425 4.85570189 0 0 Z " fill="#CE0DCB" transform="translate(230,267)"/>
<path d="M0 0 C1.02963867 -0.02416992 1.02963867 -0.02416992 2.08007812 -0.04882812 C7.14622976 -0.05362108 10.65057061 1.0647925 15.1875 3.3125 C15.1875 3.6425 15.1875 3.9725 15.1875 4.3125 C13.99125 4.1475 12.795 3.9825 11.5625 3.8125 C-3.06153686 2.1878431 -3.06153686 2.1878431 -15.8125 8.3125 C-17.79700156 9.34291427 -19.79449105 10.34935937 -21.8125 11.3125 C-22.59625 11.704375 -23.38 12.09625 -24.1875 12.5 C-24.72375 12.768125 -25.26 13.03625 -25.8125 13.3125 C-22.31597919 7.90878602 -17.32176958 5.32317456 -11.8125 2.3125 C-10.90951172 1.74015625 -10.90951172 1.74015625 -9.98828125 1.15625 C-6.71235712 -0.11412632 -3.46241514 -0.0159853 0 0 Z " fill="#40025D" transform="translate(215.8125,171.6875)"/>
<path d="M0 0 C1.65 1.65 3.3 3.3 5 5 C4.01 5 3.02 5 2 5 C1.67 6.65 1.34 8.3 1 10 C0.38125 10.12375 -0.2375 10.2475 -0.875 10.375 C-3.19120832 10.87197356 -3.19120832 10.87197356 -5 13 C-7.125 12.625 -7.125 12.625 -9 12 C-9 8.68560062 -8.83218656 7.7084497 -7 5 C-4.75903656 3.18859768 -2.41231133 1.57380739 0 0 Z " fill="#F302E4" transform="translate(234,288)"/>
<path d="M0 0 C0 0.99 0 1.98 0 3 C-0.66 3.66 -1.32 4.32 -2 5 C-0.68 5.33 0.64 5.66 2 6 C1 8 1 8 -1.3125 8.875 C-4.12910785 9.84018647 -4.12910785 9.84018647 -6.0625 12.1875 C-6.701875 12.785625 -7.34125 13.38375 -8 14 C-10 13.8125 -10 13.8125 -12 13 C-13.33040649 12.65517038 -14.66345521 12.32021386 -16 12 C-15.26394531 11.46890625 -14.52789062 10.9378125 -13.76953125 10.390625 C-12.79371094 9.68421875 -11.81789063 8.9778125 -10.8125 8.25 C-9.84957031 7.55390625 -8.88664062 6.8578125 -7.89453125 6.140625 C-5.20870786 4.15434805 -2.59333207 2.10500812 0 0 Z " fill="#020838" transform="translate(302,312)"/>
<path d="M0 0 C-10.04128637 6.69419092 -26.66607504 6.42197855 -38.078125 4.328125 C-41.40511053 3.61423742 -44.70609327 2.85265999 -48 2 C-48 1.67 -48 1.34 -48 1 C-38.92783505 0.67727476 -38.92783505 0.67727476 -35.125 2 C-26.32113598 4.81723648 -17.11940017 2.64857038 -8.34765625 0.65625 C-5.44329581 0.08690046 -2.94290547 -0.13402226 0 0 Z " fill="#CC13B0" transform="translate(208,312)"/>
<path d="M0 0 C0 2 0 2 -1.4375 3.5 C-1.953125 3.995 -2.46875 4.49 -3 5 C-3.33 5.66 -3.66 6.32 -4 7 C-8.96757757 8.30725725 -13.89442243 8 -19 8 C-19 8.66 -19 9.32 -19 10 C-20.98 10 -22.96 10 -25 10 C-24.41347656 9.70867187 -23.82695312 9.41734375 -23.22265625 9.1171875 C-21.89063891 8.44766736 -20.56330048 7.76852008 -19.24609375 7.0703125 C-5.71900826 0 -5.71900826 0 0 0 Z " fill="#2457E2" transform="translate(242,311)"/>
<path d="M0 0 C0.66 0.66 1.32 1.32 2 2 C0.35369672 1.85957123 -1.29204179 1.71250671 -2.9375 1.5625 C-4.31228516 1.44068359 -4.31228516 1.44068359 -5.71484375 1.31640625 C-8 1 -8 1 -9 0 C-11.86267567 -0.07325168 -14.700719 -0.09238205 -17.5625 -0.0625 C-18.36880859 -0.05798828 -19.17511719 -0.05347656 -20.00585938 -0.04882812 C-22.00393756 -0.03700518 -24.00197783 -0.01906914 -26 0 C-26.103125 0.639375 -26.20625 1.27875 -26.3125 1.9375 C-26.539375 2.618125 -26.76625 3.29875 -27 4 C-27.99 4.33 -28.98 4.66 -30 5 C-30 5.66 -30 6.32 -30 7 C-30.66 6.67 -31.32 6.34 -32 6 C-27.71428571 -1.23214286 -27.71428571 -1.23214286 -23.1875 -2.4375 C-14.95994444 -3.81899254 -7.82582502 -2.87210413 0 0 Z " fill="#1B62D7" transform="translate(323,266)"/>
<path d="M0 0 C1 3 1 3 1 5 C3.97 4.01 6.94 3.02 10 2 C8.91089614 6.35641544 8.51785685 6.75687827 5.0625 9.1875 C3.99708984 9.95126953 3.99708984 9.95126953 2.91015625 10.73046875 C1 12 1 12 -1 13 C-0.835 12.38125 -0.67 11.7625 -0.5 11.125 C0.07634644 9.03936614 0.07634644 9.03936614 0 7 C-1.65 6.67 -3.3 6.34 -5 6 C-3.35 4.02 -1.7 2.04 0 0 Z " fill="#001238" transform="translate(260,153)"/>
<path d="M0 0 C0.66 1.98 1.32 3.96 2 6 C1.34 6 0.68 6 0 6 C0 5.01 0 4.02 0 3 C-7.51806849 2.55967929 -13.84224277 3.71387222 -21 6 C-21.33 7.65 -21.66 9.3 -22 11 C-25 7.375 -25 7.375 -25 4 C-16.87955533 1.41622215 -8.53812767 -0.17761335 0 0 Z " fill="#CA12A4" transform="translate(143,265)"/>
<path d="M0 0 C0.33 0 0.66 0 1 0 C1 12.87 1 25.74 1 39 C4.3 39 7.6 39 11 39 C11 39.33 11 39.66 11 40 C6.545 40.495 6.545 40.495 2 41 C2 41.66 2 42.32 2 43 C0.515 43.495 0.515 43.495 -1 44 C-1.495 42.515 -1.495 42.515 -2 41 C-1.67 40.34 -1.34 39.68 -1 39 C-0.84279903 36.0851463 -0.74144346 33.19060364 -0.68359375 30.2734375 C-0.66281265 29.41062164 -0.64203156 28.54780579 -0.62062073 27.65884399 C-0.55513966 24.89764507 -0.49624702 22.13634962 -0.4375 19.375 C-0.3943134 17.50519828 -0.35069907 15.63540638 -0.30664062 13.765625 C-0.19945976 9.17718272 -0.09818825 4.58864317 0 0 Z " fill="#1F2136" transform="translate(344,210)"/>
<path d="M0 0 C0.33 1.32 0.66 2.64 1 4 C-0.32 4.33 -1.64 4.66 -3 5 C-3.66 7.64 -4.32 10.28 -5 13 C-2.03 13.495 -2.03 13.495 1 14 C1.66 15.98 2.32 17.96 3 20 C-1.59306496 18.5140084 -4.43569245 16.14985318 -8 13 C-7.48118887 8.8275894 -6.28848726 6.74583179 -3.4375 3.6875 C-2.79683594 2.99011719 -2.15617188 2.29273438 -1.49609375 1.57421875 C-1.00238281 1.05472656 -0.50867188 0.53523437 0 0 Z " fill="#C30ADE" transform="translate(172,165)"/>
<path d="M0 0 C0.66 0 1.32 0 2 0 C2.3125 3.3125 2.3125 3.3125 2 7 C-0.125 8.6875 -0.125 8.6875 -3 10 C-5.00580329 11.32458708 -7.00715862 12.6559907 -9 14 C-8.34 11.69 -7.68 9.38 -7 7 C-6.34 7 -5.68 7 -5 7 C-4.34 5.35 -3.68 3.7 -3 2 C-2.01 2 -1.02 2 0 2 C0 1.34 0 0.68 0 0 Z " fill="#0F65ED" transform="translate(293,271)"/>
<path d="M0 0 C2.31 0.33 4.62 0.66 7 1 C7 1.66 7 2.32 7 3 C7.66 3 8.32 3 9 3 C8.71872579 4.48117801 8.42466268 5.95993249 8.125 7.4375 C7.96257812 8.26121094 7.80015625 9.08492187 7.6328125 9.93359375 C7.42398437 10.61550781 7.21515625 11.29742187 7 12 C6.01 12.495 6.01 12.495 5 13 C3.35 8.71 1.7 4.42 0 0 Z " fill="#0F102E" transform="translate(402,221)"/>
<path d="M0 0 C-1.88129902 5.64389706 -8.93926192 8.2551929 -14 11 C-17.00123057 12.24471227 -19.85765267 13.14783801 -23 14 C-23.33 13.01 -23.66 12.02 -24 11 C-19.545 10.505 -19.545 10.505 -15 10 C-15 9.34 -15 8.68 -15 8 C-13.68 8 -12.36 8 -11 8 C-11 7.34 -11 6.68 -11 6 C-10.01 6 -9.02 6 -8 6 C-7.896875 5.38125 -7.79375 4.7625 -7.6875 4.125 C-6.34984772 -0.00956158 -4.00985169 0 0 0 Z " fill="#DA0EC9" transform="translate(234,297)"/>
<path d="M0 0 C0.66 1.32 1.32 2.64 2 4 C1.34 4.66 0.68 5.32 0 6 C-1.01351664 7.65848177 -2.01120795 9.32665961 -3 11 C-5 14.3125 -5 14.3125 -7 17 C-7.99 17 -8.98 17 -10 17 C-9.690625 16.236875 -9.38125 15.47375 -9.0625 14.6875 C-8.32106407 12.81210323 -7.63771783 10.91315348 -7 9 C-6.34 9 -5.68 9 -5 9 C-4.5978125 7.88625 -4.5978125 7.88625 -4.1875 6.75 C-3.05770579 4.13363446 -1.79106798 2.19812889 0 0 Z " fill="#3D3D54" transform="translate(44,54)"/>
<path d="M0 0 C0.99 0.33 1.98 0.66 3 1 C-1.30036626 7.9929968 -5.82232736 14.62626924 -11 21 C-11.33 20.01 -11.66 19.02 -12 18 C-11.34 18 -10.68 18 -10 18 C-9.87625 17.05125 -9.7525 16.1025 -9.625 15.125 C-9 12 -9 12 -7 10 C-6.01 10 -5.02 10 -4 10 C-4 8.68 -4 7.36 -4 6 C-3.34 6 -2.68 6 -2 6 C-2 5.34 -2 4.68 -2 4 C-1.34 4 -0.68 4 0 4 C0 2.68 0 1.36 0 0 Z " fill="#1564DE" transform="translate(321,283)"/>
<path d="M0 0 C0.556875 0.26554687 1.11375 0.53109375 1.6875 0.8046875 C2.8321875 1.33449219 2.8321875 1.33449219 4 1.875 C5.11375 2.39707031 5.11375 2.39707031 6.25 2.9296875 C13.30702487 5.67631366 19.50765439 6.27461673 27 6.125 C27.87011719 6.11597656 28.74023438 6.10695313 29.63671875 6.09765625 C31.7579342 6.07434619 33.87900562 6.03848579 36 6 C31.77583243 8.81611171 28.21576375 8.3303368 23.25 8.3125 C22.36828125 8.32861328 21.4865625 8.34472656 20.578125 8.36132812 C14.89850499 8.36555403 11.0723396 7.53942547 6 5 C3.22111387 4.30859478 3.22111387 4.30859478 1 4 C0.67 2.68 0.34 1.36 0 0 Z " fill="#D013AF" transform="translate(158,283)"/>
<path d="M0 0 C0.82377805 2.85388863 1.09228823 5.29390289 0.9921875 8.2578125 C0.97542969 9.04800781 0.95867187 9.83820313 0.94140625 10.65234375 C0.89691965 12.3088152 0.84476175 13.9650974 0.78515625 15.62109375 C0.77097656 16.40871094 0.75679687 17.19632813 0.7421875 18.0078125 C0.7201123 18.72598145 0.69803711 19.44415039 0.67529297 20.18408203 C0.78244629 20.78333496 0.88959961 21.38258789 1 22 C1.99 22.66 2.98 23.32 4 24 C2.02 24.99 2.02 24.99 0 26 C-2.12363562 21.68531175 -2.30222359 17.71753113 -2.25 13 C-2.25773438 12.30132812 -2.26546875 11.60265625 -2.2734375 10.8828125 C-2.25808241 6.81371437 -1.8011034 3.65938469 0 0 Z " fill="#2DB1D9" transform="translate(253,133)"/>
<path d="M0 0 C2.31 0 4.62 0 7 0 C7.08159574 4.16138263 6.98248524 7.9472484 6 12 C3.32098068 9.68118495 2.33795597 7.68185532 1.3125 4.3125 C1.06113281 3.50425781 0.80976563 2.69601562 0.55078125 1.86328125 C0.36902344 1.24839844 0.18726562 0.63351562 0 0 Z " fill="#35354F" transform="translate(30,410)"/>
<path d="M0 0 C0.66 0.33 1.32 0.66 2 1 C-2.37921078 5.7545717 -2.37921078 5.7545717 -5.6875 7.0625 C-8.17048903 7.75568019 -8.17048903 7.75568019 -8.875 10 C-10 12 -10 12 -13.625 13.25 C-14.73875 13.4975 -15.8525 13.745 -17 14 C-13.40821945 8.61232917 -8.30262959 5.51443063 -3 2 C-2.01 1.34 -1.02 0.68 0 0 Z " fill="#B40ED1" transform="translate(190,151)"/>
<path d="M0 0 C3.54150893 -0.08761663 7.08273633 -0.14059739 10.625 -0.1875 C11.62402344 -0.21263672 12.62304688 -0.23777344 13.65234375 -0.26367188 C19.30805032 -0.31985439 23.21096571 -0.11368953 28 3 C28 3.66 28 4.32 28 5 C27.35675781 4.7834375 26.71351563 4.566875 26.05078125 4.34375 C17.07324379 1.57749024 8.21384705 0.89203499 -1 3 C-0.67 2.01 -0.34 1.02 0 0 Z " fill="#2F0151" transform="translate(201,145)"/>
<path d="M0 0 C13.365 0.495 13.365 0.495 27 1 C19.04480632 4.97759684 8.32375431 3.71796059 0 1 C0 0.67 0 0.34 0 0 Z " fill="#310040" transform="translate(167,287)"/>
<path d="M0 0 C0.5775 0.226875 1.155 0.45375 1.75 0.6875 C-0.58285443 4.18678164 -1.45795069 4.3204098 -5.375 5.375 C-6.74011719 5.75205078 -6.74011719 5.75205078 -8.1328125 6.13671875 C-9.18082031 6.40935547 -9.18082031 6.40935547 -10.25 6.6875 C-10.25 7.3475 -10.25 8.0075 -10.25 8.6875 C-11.57 8.6875 -12.89 8.6875 -14.25 8.6875 C-14.25 9.3475 -14.25 10.0075 -14.25 10.6875 C-15.9 10.6875 -17.55 10.6875 -19.25 10.6875 C-15.83806906 8.01999036 -12.27906448 6.00439746 -8.46875 3.96875 C-6.19387185 2.72414587 -6.19387185 2.72414587 -4.109375 1.01171875 C-2.25 -0.3125 -2.25 -0.3125 0 0 Z " fill="#185DD6" transform="translate(269.25,296.3125)"/>
<path d="M0 0 C0.33 0.66 0.66 1.32 1 2 C0.01 2 -0.98 2 -2 2 C-2.33 3.32 -2.66 4.64 -3 6 C-2.34 6.33 -1.68 6.66 -1 7 C-3.64 7 -6.28 7 -9 7 C-9 5.02 -9 3.04 -9 1 C-4.545 0.505 -4.545 0.505 0 0 Z " fill="#0B0B2B" transform="translate(384,203)"/>
<path d="M0 0 C2.875 -0.125 2.875 -0.125 6 0 C7.33333333 1.33333333 8.66666667 2.66666667 10 4 C9.67 4.33 9.34 4.66 9 5 C11.31 5 13.62 5 16 5 C14 7 14 7 10.8125 8.0625 C6.47260974 7.99135426 6.00010888 7.54469663 3.0625 4.625 C0 1.24615385 0 1.24615385 0 0 Z " fill="#21B0E6" transform="translate(329,185)"/>
<path d="M0 0 C-1.2367622 3.7102866 -3.00020293 4.60016234 -6 7 C-6.33 7.99 -6.66 8.98 -7 10 C-7.66 10 -8.32 10 -9 10 C-9 10.66 -9 11.32 -9 12 C-10.64488294 13.68816933 -12.31337542 15.35353315 -14 17 C-14.66 17.99 -15.32 18.98 -16 20 C-16.66 19.67 -17.32 19.34 -18 19 C-4.86764706 0 -4.86764706 0 0 0 Z " fill="#2AB4DF" transform="translate(266,161)"/>
<path d="M0 0 C-0.6875 1.9375 -0.6875 1.9375 -2 4 C-4.625 4.75 -4.625 4.75 -7 5 C-7.33 6.65 -7.66 8.3 -8 10 C-9.32 10.33 -10.64 10.66 -12 11 C-12.33 10.01 -12.66 9.02 -13 8 C-13.66 7.34 -14.32 6.68 -15 6 C-3.26213592 0 -3.26213592 0 0 0 Z " fill="#16163C" transform="translate(93,20)"/>
<path d="M0 0 C4.1666604 0.47348414 6.92884715 1.04696841 10 4 C10 4.66 10 5.32 10 6 C10.78375 5.79375 11.5675 5.5875 12.375 5.375 C13.674375 5.189375 13.674375 5.189375 15 5 C15.66 5.66 16.32 6.32 17 7 C16.34 7 15.68 7 15 7 C15 7.66 15 8.32 15 9 C9.26800429 7.53025751 4.66416601 4.55513098 0 1 C0 0.67 0 0.34 0 0 Z " fill="#4B4B5F" transform="translate(67,455)"/>
<path d="M0 0 C-0.99 0.495 -0.99 0.495 -2 1 C-2 2.65 -2 4.3 -2 6 C-4.31 6 -6.62 6 -9 6 C-9.33 5.01 -9.66 4.02 -10 3 C-7.29536552 -0.8183075 -4.37912428 -0.24787496 0 0 Z " fill="#040428" transform="translate(260,219)"/>
<path d="M0 0 C8.70984454 -1.04055665 14.5328955 1.68909431 22 6 C22 6.66 22 7.32 22 8 C18.79624253 6.98417446 15.75228738 5.88782825 12.6875 4.5 C8.5101424 2.80073589 4.41400731 1.85077238 0 1 C0 0.67 0 0.34 0 0 Z " fill="#27A8D7" transform="translate(304,175)"/>
<path d="M0 0 C1.91541138 -0.10841951 3.83259773 -0.18578079 5.75 -0.25 C7.35101563 -0.31960937 7.35101563 -0.31960937 8.984375 -0.390625 C12.63802112 0.08264522 13.72228105 1.19155042 16 4 C15.01 4.495 15.01 4.495 14 5 C14 4.34 14 3.68 14 3 C6.72763725 1.72802781 1.76767066 1.89387682 -4.90625 5.1875 C-7 6 -7 6 -10 5 C-6.55549263 2.70366176 -4.06187717 2.45983515 0 2 C0 1.34 0 0.68 0 0 Z " fill="#260047" transform="translate(227,129)"/>
<path d="M0 0 C0 0.33 0 0.66 0 1 C-1.22976562 1.20496094 -2.45953125 1.40992188 -3.7265625 1.62109375 C-4.51160156 1.75193359 -5.29664063 1.88277344 -6.10546875 2.01757812 C-9.34277344 2.55712891 -12.58007812 3.09667969 -15.81738281 3.63623047 C-16.89777832 3.81629639 -16.89777832 3.81629639 -18 4 C-20 4.33333333 -22 4.66666667 -24 5 C-17.03894383 -1.12572943 -8.73588846 -0.23646014 0 0 Z " fill="#B00FCD" transform="translate(218,146)"/>
<path d="M0 0 C1.65 0 3.3 0 5 0 C1.83525695 3.25516428 -1.32752791 6.32008793 -5 9 C-5.66 9 -6.32 9 -7 9 C-7.33 7.68 -7.66 6.36 -8 5 C-7.34 5 -6.68 5 -6 5 C-6 4.34 -6 3.68 -6 3 C-4.35 3 -2.7 3 -1 3 C-0.67 2.01 -0.34 1.02 0 0 Z " fill="#20BBED" transform="translate(266,144)"/>
<path d="M0 0 C1.65 0 3.3 0 5 0 C3.43809911 3.12380177 0.79634802 3.73163235 -2.3125 5.1875 C-3.46363281 5.73792969 -4.61476563 6.28835938 -5.80078125 6.85546875 C-8.91197631 7.96850923 -10.03003238 8.26865284 -13 7 C-12.67 6.34 -12.34 5.68 -12 5 C-9.35139573 4.40644386 -6.70802678 4.25790731 -4 4 C-4 3.34 -4 2.68 -4 2 C-2.68 2 -1.36 2 0 2 C0 1.34 0 0.68 0 0 Z " fill="#215BD8" transform="translate(276,327)"/>
<path d="M0 0 C1.32 0 2.64 0 4 0 C4 2.31 4 4.62 4 7 C3.071875 7.12375 3.071875 7.12375 2.125 7.25 C-0.1346633 7.77905978 -0.1346633 7.77905978 -0.9375 9.75 C-1.288125 10.4925 -1.63875 11.235 -2 12 C-3.62746694 13.70496537 -5.28891311 15.37897032 -7 17 C-7.66 16.67 -8.32 16.34 -9 16 C-8.28972656 15.24074219 -7.57945312 14.48148437 -6.84765625 13.69921875 C-5.91902166 12.69554298 -4.99064991 11.69162399 -4.0625 10.6875 C-3.59392578 10.18798828 -3.12535156 9.68847656 -2.64257812 9.17382812 C-0.44302897 6.78438984 0.96026813 5.11919562 2 2 C1.34 1.34 0.68 0.68 0 0 Z " fill="#31014B" transform="translate(249,277)"/>
<path d="M0 0 C0.33 1.32 0.66 2.64 1 4 C1.66 4 2.32 4 3 4 C3 4.99 3 5.98 3 7 C3.66 7 4.32 7 5 7 C5.2475 7.7425 5.495 8.485 5.75 9.25 C7.09147301 12.20124062 8.60905526 13.84814974 11 16 C10.67 16.99 10.34 17.98 10 19 C5.22174348 13.88837674 1.43474691 8.62590329 -1 2 C-0.67 1.34 -0.34 0.68 0 0 Z " fill="#DD0EAF" transform="translate(122,276)"/>
<path d="M0 0 C3.68611749 0.50265238 6.84038931 0.9688217 10 3 C10.99 4.485 10.99 4.485 12 6 C14.30144109 7.07136051 16.6340213 8.07989717 19 9 C19 9.66 19 10.32 19 11 C14.25652774 9.62309544 10.27474838 7.56160559 6.125 4.9375 C5.53203125 4.57333984 4.9390625 4.20917969 4.328125 3.83398438 C2.86464287 2.9218371 1.4292745 1.96486632 0 1 C0 0.67 0 0.34 0 0 Z " fill="#2A0044" transform="translate(230,266)"/>
<path d="M0 0 C1.890625 0.6171875 1.890625 0.6171875 4 2 C5.046875 4.8203125 5.046875 4.8203125 5.75 8.125 C5.99234375 9.22070312 6.2346875 10.31640625 6.484375 11.4453125 C6.65453125 12.28835937 6.8246875 13.13140625 7 14 C5.140625 15.0546875 5.140625 15.0546875 3 16 C0.75 15.125 0.75 15.125 -1 14 C0.65 13.34 2.3 12.68 4 12 C3.79503906 11.38511719 3.59007812 10.77023438 3.37890625 10.13671875 C2.25260417 6.7578125 1.12630208 3.37890625 0 0 Z " fill="#02143B" transform="translate(351,174)"/>
<path d="M0 0 C0.99 0.99 1.98 1.98 3 3 C2.34 4.32 1.68 5.64 1 7 C0.34 7 -0.32 7 -1 7 C-1 8.98 -1 10.96 -1 13 C-2.98 13.99 -2.98 13.99 -5 15 C-4.54705135 13.24859857 -4.08741252 11.49892656 -3.625 9.75 C-3.36976562 8.77546875 -3.11453125 7.8009375 -2.8515625 6.796875 C-2.10401491 4.34162697 -1.22876183 2.24382595 0 0 Z " fill="#43425C" transform="translate(31,75)"/>
<path d="M0 0 C1.32 0.33 2.64 0.66 4 1 C3.45660208 5.56454251 2.20536179 8.9728176 0 13 C-0.66 12.01 -1.32 11.02 -2 10 C-1.34 10 -0.68 10 0 10 C-0.185625 8.906875 -0.37125 7.81375 -0.5625 6.6875 C-1 3 -1 3 0 0 Z " fill="#404058" transform="translate(468,402)"/>
<path d="M0 0 C-0.81791016 0.34611328 -0.81791016 0.34611328 -1.65234375 0.69921875 C-7.3046377 3.14371511 -12.66696943 5.9237365 -18 9 C-18 8.01 -18 7.02 -18 6 C-12.85653922 1.40517503 -6.92471915 -2.30823972 0 0 Z " fill="#1B0040" transform="translate(198,149)"/>
<path d="M0 0 C0.99 0 1.98 0 3 0 C2.44040477 3.82246588 0.78682643 5.58971741 -1.9375 8.25 C-2.64777344 8.95640625 -3.35804688 9.6628125 -4.08984375 10.390625 C-6 12 -6 12 -8 12 C-8 11.01 -8 10.02 -8 9 C-7.01 9 -6.02 9 -5 9 C-5 8.34 -5 7.68 -5 7 C-4.34 7 -3.68 7 -3 7 C-2.814375 6.1028125 -2.814375 6.1028125 -2.625 5.1875 C-2 3 -2 3 0 0 Z " fill="#D00ED3" transform="translate(244,284)"/>
<path d="M0 0 C0.66 0 1.32 0 2 0 C2 0.66 2 1.32 2 2 C2.66 2 3.32 2 4 2 C4.33 4.31 4.66 6.62 5 9 C4.01 9.495 4.01 9.495 3 10 C1.95191959 11.97522846 0.9479589 13.97481509 0 16 C-0.33 16 -0.66 16 -1 16 C-1.17981737 12.94310468 -0.9707569 10.91743125 0.0625 8 C1.06548125 4.79045999 0.93458231 3.17757984 0 0 Z " fill="#E702ED" transform="translate(241,275)"/>
<path d="M0 0 C0.33 0 0.66 0 1 0 C1 9.24 1 18.48 1 28 C0.67 28 0.34 28 0 28 C0 23.71 0 19.42 0 15 C-1.32 15 -2.64 15 -4 15 C-3.67 14.01 -3.34 13.02 -3 12 C-2.34 12 -1.68 12 -1 12 C-0.67 8.04 -0.34 4.08 0 0 Z " fill="#0F0F2E" transform="translate(156,221)"/>
<path d="M0 0 C0.66 1.32 1.32 2.64 2 4 C2.66 4 3.32 4 4 4 C5.06775224 5.96466413 6.06553465 7.96855359 7 10 C6.67 10.66 6.34 11.32 6 12 C5.01 11.67 4.02 11.34 3 11 C3 10.34 3 9.68 3 9 C1.68 8.34 0.36 7.68 -1 7 C-0.67 6.01 -0.34 5.02 0 4 C0 2.68 0 1.36 0 0 Z " fill="#3F3F57" transform="translate(459,59)"/>
<path d="M0 0 C0.99 0.66 1.98 1.32 3 2 C2.67 2.66 2.34 3.32 2 4 C0.68 4 -0.64 4 -2 4 C-2 4.99 -2 5.98 -2 7 C-3.53125 8.38671875 -3.53125 8.38671875 -5.5 9.6875 C-6.47453125 10.34298828 -6.47453125 10.34298828 -7.46875 11.01171875 C-7.9740625 11.33785156 -8.479375 11.66398437 -9 12 C-9.66 11.67 -10.32 11.34 -11 11 C-7.37 7.37 -3.74 3.74 0 0 Z " fill="#47475F" transform="translate(59,38)"/>
<path d="M0 0 C3 1 3 1 4 3 C4.22858114 5.0374763 4.41024278 7.08040303 4.5625 9.125 C4.64628906 10.22070312 4.73007813 11.31640625 4.81640625 12.4453125 C4.87699219 13.28835937 4.93757812 14.13140625 5 15 C3.35 15.33 1.7 15.66 0 16 C-0.33 15.34 -0.66 14.68 -1 14 C-0.01 14 0.98 14 2 14 C1.85866501 12.22880197 1.71176792 10.45804713 1.5625 8.6875 C1.44068359 7.20830078 1.44068359 7.20830078 1.31640625 5.69921875 C1.08187441 2.90624401 1.08187441 2.90624401 0 0 Z " fill="#27014A" transform="translate(243,135)"/>
<path d="M0 0 C0 0.66 0 1.32 0 2 C-0.99 2 -1.98 2 -3 2 C-3.33 3.32 -3.66 4.64 -4 6 C-3.05125 5.95875 -2.1025 5.9175 -1.125 5.875 C2 6 2 6 4 8 C2.22844346 7.88570603 0.45773771 7.75816963 -1.3125 7.625 C-2.29863281 7.55539063 -3.28476563 7.48578125 -4.30078125 7.4140625 C-7 7 -7 7 -10 5 C-8.71186658 4.16121545 -7.41936744 3.32913217 -6.125 2.5 C-5.40570313 2.0359375 -4.68640625 1.571875 -3.9453125 1.09375 C-2 0 -2 0 0 0 Z " fill="#AC11CA" transform="translate(224,133)"/>
<path d="M0 0 C7.78961124 -0.46530864 14.52678392 0.84278299 22 3 C22 3.33 22 3.66 22 4 C14.37404682 4.45755719 7.3970146 2.74536299 0 1 C0 0.67 0 0.34 0 0 Z " fill="#C40FA1" transform="translate(160,313)"/>
<path d="M0 0 C1.76462683 3.08809695 2 4.23312136 2 8 C0.35 8.66 -1.3 9.32 -3 10 C-3 10.99 -3 11.98 -3 13 C-4.32 12.67 -5.64 12.34 -7 12 C-6.57847656 11.30132812 -6.15695312 10.60265625 -5.72265625 9.8828125 C-5.17480469 8.97273438 -4.62695312 8.06265625 -4.0625 7.125 C-3.51722656 6.22007812 -2.97195313 5.31515625 -2.41015625 4.3828125 C-1.56101983 2.94798364 -0.74562276 1.49124552 0 0 Z " fill="#011149" transform="translate(325,280)"/>
<path d="M0 0 C0 2.97 0 5.94 0 9 C-0.99 9 -1.98 9 -3 9 C-3 9.99 -3 10.98 -3 12 C-3.66 12 -4.32 12 -5 12 C-4.52558085 9.56013011 -4.05833639 7.1856158 -3.3125 4.8125 C-3.209375 4.214375 -3.10625 3.61625 -3 3 C-3.66 2.34 -4.32 1.68 -5 1 C-2 0 -2 0 0 0 Z " fill="#1F1F38" transform="translate(314,210)"/>
<path d="M0 0 C1.32 0.33 2.64 0.66 4 1 C3.2575 1.70125 2.515 2.4025 1.75 3.125 C-0.97817223 5.97718006 -2.91302954 8.6763063 -5 12 C-5.99 10.68 -6.98 9.36 -8 8 C-7.34 8 -6.68 8 -6 8 C-5.67 7.01 -5.34 6.02 -5 5 C-2.4375 3.8125 -2.4375 3.8125 0 3 C0 2.01 0 1.02 0 0 Z " fill="#11122F" transform="translate(120,210)"/>
<path d="M0 0 C3.15353333 4.2047111 3.36246719 4.85091857 3.1875 9.75 C3.14689453 11.22726563 3.14689453 11.22726563 3.10546875 12.734375 C3.07066406 13.48203125 3.03585938 14.2296875 3 15 C0.13275314 14.42655063 -0.8614515 14.1385485 -3 12 C-1.68 12 -0.36 12 1 12 C0.67 8.04 0.34 4.08 0 0 Z " fill="#AF14CE" transform="translate(242,134)"/>
<path d="M0 0 C-5.64524422 5.80205656 -5.64524422 5.80205656 -9 8 C-9.66 8 -10.32 8 -11 8 C-11 7.34 -11 6.68 -11 6 C-10.01 6 -9.02 6 -8 6 C-7.9175 5.21625 -7.835 4.4325 -7.75 3.625 C-7 1 -7 1 -5.125 -0.375 C-3 -1 -3 -1 0 0 Z " fill="#45455B" transform="translate(442,448)"/>
<path d="M0 0 C0.33 1.32 0.66 2.64 1 4 C-5.93548387 9.96774194 -5.93548387 9.96774194 -10 12 C-10.66 11.67 -11.32 11.34 -12 11 C-11.38511719 10.54109375 -10.77023437 10.0821875 -10.13671875 9.609375 C-9.32847656 8.99578125 -8.52023437 8.3821875 -7.6875 7.75 C-6.88699219 7.14671875 -6.08648437 6.5434375 -5.26171875 5.921875 C-3.11450388 4.09729864 -1.58398701 2.31702954 0 0 Z " fill="#195ED5" transform="translate(282,283)"/>
<path d="M0 0 C2.30143236 3.45214853 2.13833854 4.23479324 1.625 8.1875 C1.51414062 9.08855469 1.40328125 9.98960938 1.2890625 10.91796875 C1.19367187 11.60503906 1.09828125 12.29210937 1 13 C0.67 13 0.34 13 0 13 C-0.33 15.31 -0.66 17.62 -1 20 C-1.33 20 -1.66 20 -2 20 C-2.26618595 13.04958914 -1.6120509 6.76485645 0 0 Z " fill="#45455D" transform="translate(24,95)"/>
<path d="M0 0 C0.5775 0.165 1.155 0.33 1.75 0.5 C4.26664369 1.14462031 4.26664369 1.14462031 8 1 C7.67 2.65 7.34 4.3 7 6 C8.32 6.66 9.64 7.32 11 8 C7.31446856 8 5.96240248 7.1477418 3 5 C1.1875 2.3125 1.1875 2.3125 0 0 Z " fill="#E40AB1" transform="translate(135,297)"/>
<path d="M0 0 C2.31 0.66 4.62 1.32 7 2 C6.67 2.99 6.34 3.98 6 5 C6.66 5.33 7.32 5.66 8 6 C7.67 7.32 7.34 8.64 7 10 C4.20127563 7.47211993 2.54226981 5.79588866 2 2 C1.34 2 0.68 2 0 2 C0 1.34 0 0.68 0 0 Z " fill="#010228" transform="translate(234,148)"/>
<path d="M0 0 C0.99 0.33 1.98 0.66 3 1 C2.34 1.66 1.68 2.32 1 3 C2.96822886 4.96822886 6.34808709 4.66248381 9 5 C9 5.33 9 5.66 9 6 C5.37 6 1.74 6 -2 6 C-2.33 5.01 -2.66 4.02 -3 3 C-3.66 3 -4.32 3 -5 3 C-5 2.34 -5 1.68 -5 1 C-2.525 1.495 -2.525 1.495 0 2 C0 1.34 0 0.68 0 0 Z " fill="#240046" transform="translate(215,135)"/>
<path d="M0 0 C1.32 1.32 2.64 2.64 4 4 C0.86501708 5.85776765 -1.37471432 6.20140476 -5 6 C-5 4.68 -5 3.36 -5 2 C-3.68 2 -2.36 2 -1 2 C-0.67 1.34 -0.34 0.68 0 0 Z " fill="#010F38" transform="translate(328,185)"/>
<path d="M0 0 C-2.28855702 0.86343731 -4.5801928 1.7159811 -6.875 2.5625 C-7.52597656 2.80935547 -8.17695313 3.05621094 -8.84765625 3.31054688 C-10.54497665 3.93173115 -12.27156776 4.47152252 -14 5 C-14.66 4.67 -15.32 4.34 -16 4 C-15.67 2.68 -15.34 1.36 -15 0 C-13.14375 0.0309375 -13.14375 0.0309375 -11.25 0.0625 C-7.17095853 0.07688815 -3.86618566 -1.28872855 0 0 Z " fill="#28A9D6" transform="translate(281,178)"/>
<path d="M0 0 C2.875 1 2.875 1 5 2 C4.67 2.66 4.34 3.32 4 4 C2.845 3.835 1.69 3.67 0.5 3.5 C-3.69907803 2.96761689 -7.77063041 2.92447554 -12 3 C-7.60434903 0.80217451 -5.0379721 -0.2963513 0 0 Z " fill="#AE0FCB" transform="translate(236,130)"/>
<path d="M0 0 C7.48291572 6.15034169 7.48291572 6.15034169 10 10 C7.83125748 9.49396008 6.00032373 9.00016187 4 8 C4 7.34 4 6.68 4 6 C3.01 5.67 2.02 5.34 1 5 C1 4.34 1 3.68 1 3 C0.67 2.01 0.34 1.02 0 0 Z M-1 6 C-0.01 6.495 -0.01 6.495 1 7 C0.01 7.495 0.01 7.495 -1 8 C-1 7.34 -1 6.68 -1 6 Z " fill="#D90DAF" transform="translate(145,271)"/>
<path d="M0 0 C-3 2 -3 2 -5.3125 1.9375 C-8.7854383 2.01826601 -10.95084549 3.40913678 -14 5 C-14.99 5 -15.98 5 -17 5 C-17 4.34 -17 3.68 -17 3 C-4.27184466 -2.13592233 -4.27184466 -2.13592233 0 0 Z " fill="#00163A" transform="translate(290,177)"/>
<path d="M0 0 C-5.324335 2.32086397 -9.43842552 1.91457003 -15 1 C-15 0.67 -15 0.34 -15 0 C-13.25360243 -0.39143394 -11.50264082 -0.76254287 -9.75 -1.125 C-8.77546875 -1.33382812 -7.8009375 -1.54265625 -6.796875 -1.7578125 C-3.76557234 -2.0202996 -2.51982654 -1.61988849 0 0 Z " fill="#010A36" transform="translate(316,147)"/>
<path d="M0 0 C0.66 0.33 1.32 0.66 2 1 C-2.67460782 5.55774263 -5.48277089 6.66290194 -12 7 C-8.44008172 4.03340143 -4.34777457 1.618652 0 0 Z " fill="#020D4D" transform="translate(281,327)"/>
<path d="M0 0 C0.721875 0.474375 1.44375 0.94875 2.1875 1.4375 C4.89475226 2.94152903 6.96194275 3.56599182 10 4 C9.67 4.66 9.34 5.32 9 6 C6.67843403 6.40729228 4.3431213 6.74438677 2 7 C1.34 4.69 0.68 2.38 0 0 Z " fill="#11112F" transform="translate(287,245)"/>
<path d="M0 0 C-6.93 2.97 -6.93 2.97 -14 6 C-13.67 4.68 -13.34 3.36 -13 2 C-11.07421875 0.91796875 -11.07421875 0.91796875 -8.6875 0.1875 C-7.90761719 -0.06644531 -7.12773437 -0.32039062 -6.32421875 -0.58203125 C-4 -1 -4 -1 0 0 Z " fill="#28B5DF" transform="translate(264,184)"/>
<path d="M0 0 C0 3.96 0 7.92 0 12 C-0.33 12 -0.66 12 -1 12 C-1 10.02 -1 8.04 -1 6 C-1.99 6.33 -2.98 6.66 -4 7 C-4.1875 4.625 -4.1875 4.625 -4 2 C-1 0 -1 0 0 0 Z " fill="#001F47" transform="translate(251,140)"/>
<path d="M0 0 C2.3129482 2.3129482 2.49580975 3.47904875 3.125 6.625 C3.29257812 7.44226563 3.46015625 8.25953125 3.6328125 9.1015625 C3.81457031 10.04128906 3.81457031 10.04128906 4 11 C4.99 11 5.98 11 7 11 C6 14 6 14 4 16 C3.32815382 13.89748139 2.66269032 11.79292237 2 9.6875 C1.443125 7.92986328 1.443125 7.92986328 0.875 6.13671875 C0 3 0 3 0 0 Z " fill="#515166" transform="translate(25,394)"/>
<path d="M0 0 C0.625 2.8125 0.625 2.8125 1 6 C0.01 7.485 0.01 7.485 -1 9 C-2.25664978 6.09399739 -3 4.20395416 -3 1 C-1 0 -1 0 0 0 Z M3 2 C3.66 2 4.32 2 5 2 C5 2.66 5 3.32 5 4 C4.01 3.67 3.02 3.34 2 3 C2.33 2.67 2.66 2.34 3 2 Z " fill="#F903B9" transform="translate(135,288)"/>
<path d="M0 0 C0.33 1.32 0.66 2.64 1 4 C0.071875 4.12375 0.071875 4.12375 -0.875 4.25 C-3.14026135 4.79253008 -3.14026135 4.79253008 -4.0625 6.8125 C-4.371875 7.534375 -4.68125 8.25625 -5 9 C-5.97581759 10.35113205 -6.97029741 11.68946944 -8 13 C-7.48118887 8.8275894 -6.28848726 6.74583179 -3.4375 3.6875 C-2.79683594 2.99011719 -2.15617188 2.29273438 -1.49609375 1.57421875 C-1.00238281 1.05472656 -0.50867188 0.53523437 0 0 Z " fill="#AA10C3" transform="translate(172,165)"/>
<path d="M0 0 C0.66 0.33 1.32 0.66 2 1 C1.360625 1.598125 0.72125 2.19625 0.0625 2.8125 C-2.20310389 4.90810337 -2.20310389 4.90810337 -3 8 C-3.66 8 -4.32 8 -5 8 C-5 8.66 -5 9.32 -5 10 C-5.99 10 -6.98 10 -8 10 C-7.67 9.01 -7.34 8.02 -7 7 C-6.34 6.67 -5.68 6.34 -5 6 C-4.5359375 5.0409375 -4.5359375 5.0409375 -4.0625 4.0625 C-3 2 -3 2 0 0 Z " fill="#21BFF0" transform="translate(270,157)"/>
<path d="M0 0 C1.32176485 0.90325616 2.63215066 1.82317903 3.9375 2.75 C4.66839844 3.26046875 5.39929688 3.7709375 6.15234375 4.296875 C8.20805399 6.19177915 8.62669176 7.27425729 9 10 C7.68 9.34 6.36 8.68 5 8 C5 7.01 5 6.02 5 5 C3.68 5 2.36 5 1 5 C0.67 3.35 0.34 1.7 0 0 Z " fill="#AF0FD2" transform="translate(232,152)"/>
<path d="M0 0 C1.216875 0.144375 2.43375 0.28875 3.6875 0.4375 C3.6875 0.7675 3.6875 1.0975 3.6875 1.4375 C2.016875 1.56125 2.016875 1.56125 0.3125 1.6875 C-3.37003944 2.01623787 -3.37003944 2.01623787 -4.75 4.5 C-4.935625 5.139375 -5.12125 5.77875 -5.3125 6.4375 C-5.9725 6.4375 -6.6325 6.4375 -7.3125 6.4375 C-7.3125 7.0975 -7.3125 7.7575 -7.3125 8.4375 C-7.9725 8.1075 -8.6325 7.7775 -9.3125 7.4375 C-5.33090181 -0.06628119 -5.33090181 -0.06628119 0 0 Z " fill="#2AB1DB" transform="translate(263.3125,123.5625)"/>
<path d="M0 0 C3.14958831 3.42346555 3.56179109 6.44262737 4 11 C1 10 1 10 -0.25 7.75 C-1.07700926 4.71763271 -0.85394079 2.98879276 0 0 Z " fill="#59586E" transform="translate(468,75)"/>
<path d="M0 0 C0.59167969 0.27714844 1.18335938 0.55429687 1.79296875 0.83984375 C7.69046431 3.55774153 7.69046431 3.55774153 14 5 C14 5.33 14 5.66 14 6 C9.18061476 6.23509196 5.53701494 5.45184478 1 4 C0.67 2.68 0.34 1.36 0 0 Z " fill="#C50FA2" transform="translate(158,283)"/>
<path d="M0 0 C2.64465038 3.1254959 3.84414715 6.08788267 5 10 C3.68 9.67 2.36 9.34 1 9 C0.67 6.03 0.34 3.06 0 0 Z " fill="#42024B" transform="translate(119,274)"/>
<path d="M0 0 C3.96 0 7.92 0 12 0 C12 0.33 12 0.66 12 1 C7.545 1.495 7.545 1.495 3 2 C3 2.66 3 3.32 3 4 C2.01 4.33 1.02 4.66 0 5 C-0.33 4.01 -0.66 3.02 -1 2 C-0.67 1.34 -0.34 0.68 0 0 Z " fill="#161538" transform="translate(343,249)"/>
<path d="M0 0 C0.33 0 0.66 0 1 0 C1.3125 3.3125 1.3125 3.3125 1 7 C-1.5 8.9375 -1.5 8.9375 -4 10 C-3.29445932 6.33118845 -1.72264494 3.29549466 0 0 Z " fill="#13142F" transform="translate(151,237)"/>
<path d="M0 0 C-2.57784846 2.64752004 -4.91648098 4.94432065 -8 7 C-8.1875 4.625 -8.1875 4.625 -8 2 C-4.77208445 -0.1519437 -3.71599191 -0.20086443 0 0 Z " fill="#C40DE3" transform="translate(196,179)"/>
<path d="M0 0 C0.99 0.99 1.98 1.98 3 3 C2.67 3.66 2.34 4.32 2 5 C1.01 5 0.02 5 -1 5 C-1 5.66 -1 6.32 -1 7 C-1.99 6.67 -2.98 6.34 -4 6 C-2.68 4.02 -1.36 2.04 0 0 Z " fill="#44475B" transform="translate(427,454)"/>
<path d="M0 0 C0.33 0 0.66 0 1 0 C0.39174965 4.34464536 -0.26167392 8.67551867 -1 13 C-2.71928713 10.37050204 -3.01045637 9.12809053 -2.75 5.9375 C-2 3 -2 3 0 0 Z " fill="#3A3B51" transform="translate(475,387)"/>
<path d="M0 0 C0.66 0.33 1.32 0.66 2 1 C0.87926138 1.83905565 -0.24674547 2.67107831 -1.375 3.5 C-2.00148438 3.9640625 -2.62796875 4.428125 -3.2734375 4.90625 C-5 6 -5 6 -7 6 C-7 5.01 -7 4.02 -7 3 C-4.69631264 1.93347808 -2.35981813 0.93578995 0 0 Z " fill="#1B60DB" transform="translate(288,321)"/>
<path d="M0 0 C2.52588702 2.36292656 3.88820837 3.66462511 5 7 C3.35 6.67 1.7 6.34 0 6 C-1 3 -1 3 0 0 Z " fill="#29003A" transform="translate(124,285)"/>
<path d="M0 0 C5.75 0.875 5.75 0.875 8 2 C8 2.66 8 3.32 8 4 C8.66 4 9.32 4 10 4 C9.67 4.66 9.34 5.32 9 6 C6.03 4.35 3.06 2.7 0 1 C0 0.67 0 0.34 0 0 Z " fill="#280043" transform="translate(156,281)"/>
<path d="M0 0 C0 3.10551666 -0.5393715 4.35261084 -2 7 C-4.97 6.505 -4.97 6.505 -8 6 C-7.67 5.34 -7.34 4.68 -7 4 C-6.38125 3.855625 -5.7625 3.71125 -5.125 3.5625 C-2.63289608 2.90282543 -1.6670554 1.91711371 0 0 Z " fill="#270049" transform="translate(189,185)"/>
<path d="M0 0 C0.33 0 0.66 0 1 0 C0.67 2.64 0.34 5.28 0 8 C0.66 8.33 1.32 8.66 2 9 C0.35 9.66 -1.3 10.32 -3 11 C-1.125 3.375 -1.125 3.375 0 0 Z " fill="#31ACD7" transform="translate(247,182)"/>
<path d="M0 0 C3.26460973 1.80412643 4.88929795 2.83394693 7 6 C5.68 6.33 4.36 6.66 3 7 C0 3.375 0 3.375 0 0 Z " fill="#52526A" transform="translate(439,38)"/>
<path d="M0 0 C0.5775 0.20625 1.155 0.4125 1.75 0.625 C1.75 1.285 1.75 1.945 1.75 2.625 C2.41 2.955 3.07 3.285 3.75 3.625 C0.45 2.965 -2.85 2.305 -6.25 1.625 C-2.25 -0.375 -2.25 -0.375 0 0 Z " fill="#5C5C70" transform="translate(101.25,468.375)"/>
<path d="M0 0 C2.44897847 3.67346771 2.31537716 5.66356399 2 10 C1.34 10.66 0.68 11.32 0 12 C-1.03159626 8.90521121 -0.97482862 7.47368607 -0.5625 4.3125 C-0.46066406 3.50425781 -0.35882813 2.69601563 -0.25390625 1.86328125 C-0.17011719 1.24839844 -0.08632813 0.63351563 0 0 Z " fill="#161732" transform="translate(399,241)"/>
<path d="M0 0 C0 2 0 2 -1.125 3.6875 C-3 5 -3 5 -6.1875 4.6875 C-7.115625 4.460625 -8.04375 4.23375 -9 4 C-6.43425105 1.43425105 -3.68548192 0 0 0 Z " fill="#011C43" transform="translate(266,183)"/>
<path d="M0 0 C1.32 0 2.64 0 4 0 C4 0.66 4 1.32 4 2 C6.31 2.33 8.62 2.66 11 3 C10.67 3.66 10.34 4.32 10 5 C5.59885603 4.49701212 3.28804981 2.91227269 0 0 Z " fill="#B212CE" transform="translate(175,185)"/>
<path d="M0 0 C1.77007714 -0.08114106 3.54122098 -0.13925505 5.3125 -0.1875 C6.29863281 -0.22230469 7.28476562 -0.25710937 8.30078125 -0.29296875 C11 0 11 0 12.85546875 1.51171875 C13.23316406 2.00285156 13.61085938 2.49398437 14 3 C12.35 3 10.7 3 9 3 C9 2.34 9 1.68 9 1 C6.03 1 3.06 1 0 1 C0 0.67 0 0.34 0 0 Z " fill="#24B8E8" transform="translate(307,150)"/>
<path d="M0 0 C0.33 0.66 0.66 1.32 1 2 C1.66 2.33 2.32 2.66 3 3 C-1.625 6 -1.625 6 -5 6 C-4.67 5.01 -4.34 4.02 -4 3 C-3.01 2.67 -2.02 2.34 -1 2 C-0.67 1.34 -0.34 0.68 0 0 Z " fill="#595A6E" transform="translate(420,459)"/>
<path d="M0 0 C0.66 0 1.32 0 2 0 C2 0.99 2 1.98 2 3 C1.34 3 0.68 3 0 3 C-0.12375 3.61875 -0.2475 4.2375 -0.375 4.875 C-1 7 -1 7 -3 9 C-3 7.35 -3 5.7 -3 4 C-2.34 4 -1.68 4 -1 4 C-0.67 2.68 -0.34 1.36 0 0 Z " fill="#68687B" transform="translate(463,419)"/>
<path d="M0 0 C0.598125 0.226875 1.19625 0.45375 1.8125 0.6875 C0.8225 0.6875 -0.1675 0.6875 -1.1875 0.6875 C-1.435 1.30625 -1.6825 1.925 -1.9375 2.5625 C-3.39378639 5.03818687 -4.56562506 5.63875002 -7.1875 6.6875 C-3.9375 -0.5625 -3.9375 -0.5625 0 0 Z " fill="#21213A" transform="translate(299.1875,219.3125)"/>
<path d="M0 0 C2.97 1.65 5.94 3.3 9 5 C7.02 5.99 7.02 5.99 5 7 C5 6.01 5 5.02 5 4 C3.35 3.67 1.7 3.34 0 3 C0 2.01 0 1.02 0 0 Z " fill="#27004A" transform="translate(171,183)"/>
<path d="M0 0 C3.53372712 1.96318174 6.24479785 4.04070881 9 7 C7.02 7 5.04 7 3 7 C2.87625 6.360625 2.7525 5.72125 2.625 5.0625 C2.315625 4.0415625 2.315625 4.0415625 2 3 C1.34 2.67 0.68 2.34 0 2 C0 1.34 0 0.68 0 0 Z " fill="#210243" transform="translate(231,176)"/>
<path d="M0 0 C-3.3 1.32 -6.6 2.64 -10 4 C-9.67 2.68 -9.34 1.36 -9 0 C-3.375 -1.125 -3.375 -1.125 0 0 Z " fill="#2C004B" transform="translate(198,149)"/>
<path d="M0 0 C1.98 0.66 3.96 1.32 6 2 C6 2.33 6 2.66 6 3 C4.329375 3.433125 4.329375 3.433125 2.625 3.875 C-1.00291092 4.69241329 -1.00291092 4.69241329 -3 7 C-2.25 2.25 -2.25 2.25 0 0 Z " fill="#022146" transform="translate(259,121)"/>
<path d="M0 0 C0.99 0 1.98 0 3 0 C1.66667905 3.99996286 -0.4957827 4.83782337 -4 7 C-4 6.01 -4 5.02 -4 4 C-3.34 4 -2.68 4 -2 4 C-2 3.34 -2 2.68 -2 2 C-1.34 2 -0.68 2 0 2 C0 1.34 0 0.68 0 0 Z " fill="#00114F" transform="translate(277,285)"/>
<path d="M0 0 C0.33 1.32 0.66 2.64 1 4 C-0.98 4.99 -0.98 4.99 -3 6 C-3 6.66 -3 7.32 -3 8 C-3.66 7.67 -4.32 7.34 -5 7 C-3.35 4.69 -1.7 2.38 0 0 Z " fill="#155CC6" transform="translate(296,265)"/>
<path d="M0 0 C1.65 0 3.3 0 5 0 C4.67 1.65 4.34 3.3 4 5 C3.01 4.67 2.02 4.34 1 4 C0.3125 1.9375 0.3125 1.9375 0 0 Z " fill="#121229" transform="translate(249,234)"/>
<path d="M0 0 C0.66 0 1.32 0 2 0 C2.33 1.32 2.66 2.64 3 4 C1.35 4.33 -0.3 4.66 -2 5 C-2 2 -2 2 0 0 Z " fill="#010122" transform="translate(309,233)"/>
<path d="M0 0 C2.125 0.375 2.125 0.375 4 1 C3.360625 1.2475 2.72125 1.495 2.0625 1.75 C-0.18741541 2.81562433 -0.18741541 2.81562433 -0.75 5.125 C-0.8325 5.74375 -0.915 6.3625 -1 7 C-1.66 7 -2.32 7 -3 7 C-2.25 2.25 -2.25 2.25 0 0 Z " fill="#1B1B32" transform="translate(171,219)"/>
<path d="M0 0 C-0.7109375 1.953125 -0.7109375 1.953125 -2 4 C-4.1640625 4.609375 -4.1640625 4.609375 -6.625 4.75 C-7.44226563 4.80671875 -8.25953125 4.8634375 -9.1015625 4.921875 C-9.72804688 4.94765625 -10.35453125 4.9734375 -11 5 C-7.72709962 2.33319229 -4.35126896 0 0 0 Z " fill="#67677B" transform="translate(93,20)"/>
<path d="M0 0 C0 0.99 0 1.98 0 3 C-2 4.6875 -2 4.6875 -4 6 C-4 5.34 -4 4.68 -4 4 C-4.66 3.67 -5.32 3.34 -6 3 C-3 1 -3 1 0 0 Z " fill="#515067" transform="translate(455,433)"/>
<path d="M0 0 C0.99 0.33 1.98 0.66 3 1 C2.67 3.97 2.34 6.94 2 10 C1.67 10 1.34 10 1 10 C0.67 6.7 0.34 3.4 0 0 Z " fill="#414054" transform="translate(23,384)"/>
<path d="M0 0 C1.65 0.33 3.3 0.66 5 1 C2.37801226 3.15377564 0.35595828 4.40072174 -3 5 C-3.33 4.34 -3.66 3.68 -4 3 C-2.68 3 -1.36 3 0 3 C0 2.01 0 1.02 0 0 Z " fill="#020A4B" transform="translate(239,308)"/>
<path d="M0 0 C6.75 1.875 6.75 1.875 9 3 C9 3.66 9 4.32 9 5 C5.22454612 3.90931332 2.52956528 3.0916909 0 0 Z " fill="#3E0153" transform="translate(240,272)"/>
<path d="M0 0 C2.97 1.65 5.94 3.3 9 5 C8.01 5.66 7.02 6.32 6 7 C5.67 6.34 5.34 5.68 5 5 C4.154375 4.505 3.30875 4.01 2.4375 3.5 C1.633125 3.005 0.82875 2.51 0 2 C0 1.34 0 0.68 0 0 Z " fill="#C611CE" transform="translate(234,269)"/>
<path d="M0 0 C0.99 0.33 1.98 0.66 3 1 C3 1.99 3 2.98 3 4 C1.02 4.33 -0.96 4.66 -3 5 C-1.125 1.125 -1.125 1.125 0 0 Z " fill="#E106E5" transform="translate(231,268)"/>
<path d="M0 0 C0.99 0.33 1.98 0.66 3 1 C1.625 3 1.625 3 0 5 C-0.66 5 -1.32 5 -2 5 C-2.33 5.99 -2.66 6.98 -3 8 C-2.45276317 4.62537285 -1.9451 2.91765 0 0 Z " fill="#20203A" transform="translate(127,220)"/>
<path d="M0 0 C1.953125 0.7109375 1.953125 0.7109375 4 2 C4.609375 4.1640625 4.609375 4.1640625 4.75 6.625 C4.80671875 7.44226563 4.8634375 8.25953125 4.921875 9.1015625 C4.94765625 9.72804687 4.9734375 10.35453125 5 11 C3.16484992 7.39353114 1.57628526 3.72576515 0 0 Z " fill="#02264D" transform="translate(351,174)"/>
<path d="M0 0 C-3.51187196 2.40814077 -5.72656908 3.36629408 -10 3 C-4.375 -1.3125 -4.375 -1.3125 0 0 Z " fill="#3C015B" transform="translate(210,174)"/>
<path d="M0 0 C1.98 0.495 1.98 0.495 4 1 C4.33 2.65 4.66 4.3 5 6 C3.125 6.625 3.125 6.625 1 7 C0.34 6.34 -0.32 5.68 -1 5 C0.32 4.67 1.64 4.34 3 4 C3 3.34 3 2.68 3 2 C2.01 1.67 1.02 1.34 0 1 C0 0.67 0 0.34 0 0 Z " fill="#052D51" transform="translate(282,132)"/>
</svg>
